<svg width="117" height="117" viewBox="0 0 117 117" fill="none" xmlns="http://www.w3.org/2000/svg">
<path d="M69.9283 73.7299C71.3765 73.7299 72.7309 73.1591 73.742 72.1226L82.7252 62.9125C84.7755 60.8101 84.733 57.4317 82.6304 55.3813C80.5278 53.3313 77.1488 53.3738 75.0985 55.4759L69.8287 60.8784L68.9055 59.9808C66.8 57.9342 63.4211 57.9811 61.3734 60.0864C59.3264 62.1917 59.3737 65.5701 61.4792 67.6174L66.2154 72.2224C67.2152 73.1945 68.5339 73.7299 69.9283 73.7299ZM63.8364 62.4808C64.5639 61.7326 65.7643 61.7171 66.5114 62.4435L68.6637 64.5365C69.3429 65.1972 70.4288 65.1823 71.0906 64.5043L77.5576 57.8741C78.2861 57.1271 79.486 57.1127 80.2323 57.8403C80.9791 58.5686 80.994 59.7683 80.2662 60.5149L71.283 69.7247C70.5888 70.4672 69.3242 70.483 68.61 69.7604L63.8738 65.1553C63.1264 64.4282 63.1092 63.2283 63.8364 62.4808Z" fill="#B494B3"/>
<path d="M56.6527 74.8991C56.0815 74.142 55.0049 73.9912 54.2472 74.5625C53.4899 75.1338 53.3395 76.2105 53.9106 76.9676C54.536 77.7964 55.2279 78.5912 55.9665 79.3298C60.1893 83.5521 65.8036 85.8772 71.7754 85.8772C77.7472 85.8772 83.3614 83.5521 87.5842 79.3298C91.8071 75.1077 94.1325 69.494 94.1325 63.5231C94.1325 57.552 91.8069 51.9385 87.5842 47.7165C78.867 39.0006 64.6837 39.0009 55.9665 47.7165C50.0235 53.6586 47.9205 62.3268 50.4783 70.3386C50.7666 71.2421 51.7337 71.7403 52.6366 71.4524C53.5401 71.164 54.039 70.1976 53.7504 69.2943C51.5852 62.5124 53.3651 55.1748 58.3956 50.1451C65.773 42.7684 77.7779 42.7684 85.1553 50.1451C88.7293 53.7187 90.6977 58.4697 90.6977 63.5233C90.6977 68.577 88.7293 73.328 85.1553 76.9016C81.5815 80.4749 76.8298 82.4431 71.7754 82.4431C66.7214 82.4431 61.9694 80.4751 58.3954 76.9016C57.7688 76.2745 57.1824 75.6011 56.6527 74.8991Z" fill="#B494B3"/>
<path d="M114.637 94.8959L103.802 84.0622C103.131 83.3917 102.044 83.3915 101.373 84.0622L101.307 84.1285L97.1372 79.9594C99.9402 75.6382 101.61 70.6454 101.939 65.4345C101.998 64.488 101.279 63.6724 100.333 63.6126C99.3869 63.555 98.5707 64.2721 98.5106 65.2184C98.1004 71.724 95.3328 77.8482 90.7177 82.4626C85.5021 87.6778 78.6528 90.2884 71.8014 90.295C71.7928 90.2947 71.7843 90.2936 71.7754 90.2936H71.639C64.8246 90.2593 58.0208 87.6497 52.833 82.4626C47.7733 77.4037 44.9867 70.6774 44.9867 63.5228C44.9867 56.3682 47.7733 49.6418 52.833 44.5829C63.2778 34.1393 80.273 34.1393 90.7177 44.5829C94.608 48.4727 97.1751 53.3792 98.142 58.7724C98.3095 59.7059 99.2025 60.3261 100.136 60.1597C101.069 59.9924 101.69 59.1001 101.523 58.1664C100.432 52.0794 97.5353 46.5425 93.1466 42.1543C90.9721 39.9799 88.5452 38.2083 85.96 36.8365V22.9962C85.9587 22.5442 85.7761 22.1018 85.4571 21.7819L64.1754 0.502963C63.8553 0.184412 63.4131 0.00114258 62.9606 0H5.15257C2.31166 0 0.000228516 2.31098 0.000228516 5.15166V19.5854C0.000228516 20.5337 0.768955 21.3027 1.71775 21.3027C2.66632 21.3027 3.43528 20.534 3.43528 19.5854V5.15166C3.43528 4.20469 4.2056 3.43436 5.1528 3.43436H61.2438V19.5619C61.2438 22.4025 63.5552 24.7135 66.3961 24.7135H82.5257V35.2812C79.1747 34.0116 75.6419 33.3594 72.1033 33.3212C72.0864 33.3189 72.0699 33.3155 72.0523 33.3155H33.7074C32.7589 33.3155 31.9899 34.0845 31.9899 35.0328C31.9899 35.9812 32.7589 36.7501 33.7074 36.7501H57.7532C55.3033 38.0312 52.9939 39.671 50.9025 41.6689H33.7074C32.7589 41.6689 31.9899 42.4379 31.9899 43.3862C31.9899 44.3345 32.7589 45.1035 33.7074 45.1035H47.8114C45.008 48.7348 43.0921 52.9171 42.1751 57.3816H33.7077C32.7591 57.3816 31.9901 58.1506 31.9901 59.0989C31.9901 60.0473 32.7591 60.8162 33.7077 60.8162H41.6735C41.5944 61.7113 41.5526 62.614 41.5526 63.5232C41.5526 64.2691 41.5798 65.0109 41.633 65.7474H33.7079C32.7593 65.7474 31.9904 66.5163 31.9904 67.4647C31.9904 68.413 32.7593 69.182 33.7079 69.182H42.0807C42.9566 73.8302 44.9095 78.1857 47.8167 81.9491H33.7079C32.7593 81.9491 31.9904 82.7179 31.9904 83.6664C31.9904 84.615 32.7593 85.3837 33.7079 85.3837H50.9094C52.9978 87.378 55.3035 89.0151 57.7491 90.2945H33.707C32.7584 90.2945 31.9894 91.0635 31.9894 92.0118C31.9894 92.9602 32.7584 93.7291 33.707 93.7291H71.7754C75.423 93.7287 79.0708 93.0735 82.5252 91.7648V111.849C82.5252 112.796 81.7549 113.567 80.8077 113.567H5.15257C4.2056 113.567 3.43505 112.796 3.43505 111.849V26.4553C3.43505 25.5069 2.66609 24.738 1.71752 24.738C0.768955 24.738 0 25.5067 0 26.4553V111.849C0.000228516 114.689 2.31166 117 5.15257 117H80.8079C83.6488 117 85.9603 114.689 85.9603 111.848V90.2086C86.7267 89.8018 87.479 89.3594 88.215 88.8823L92.3838 93.0504C91.6624 93.6802 91.6238 94.8804 92.3173 95.5454L103.153 106.379C106.175 109.529 111.615 109.529 114.637 106.379C117.788 103.357 117.788 97.918 114.637 94.8959ZM66.3959 21.2791C65.4489 21.2791 64.6784 20.5088 64.6784 19.5619V5.86303L80.0965 21.2791H66.3959ZM91.0166 86.8263C91.7495 86.2205 92.4611 85.5766 93.1466 84.8913C93.8281 84.2098 94.4729 83.4985 95.0817 82.7615L98.8778 86.5569L94.8125 90.6215L91.0166 86.8263ZM112.208 103.951C110.464 105.768 107.326 105.768 105.582 103.951L95.9606 94.331L102.588 87.7048L112.209 97.3243C114.026 99.0686 114.027 102.207 112.208 103.951Z" fill="#B494B3"/>
<path d="M15.586 46.8002H23.0996C25.2179 46.8002 26.9414 45.0771 26.9414 42.9593V35.4466C26.9414 33.3285 25.2181 31.6055 23.0996 31.6055H15.586C13.4678 31.6055 11.7444 33.3285 11.7444 35.4466V42.9593C11.7444 45.0771 13.4678 46.8002 15.586 46.8002ZM15.1794 35.4466C15.1794 35.2224 15.362 35.0401 15.586 35.0401H23.0996C23.324 35.0401 23.5063 35.2224 23.5063 35.4466V42.9593C23.5063 43.1834 23.3237 43.3658 23.0996 43.3658H15.586C15.3618 43.3658 15.1794 43.1834 15.1794 42.9593V35.4466Z" fill="#B494B3"/>
<path d="M11.7444 67.0381C11.7444 69.156 13.4676 70.879 15.586 70.879H23.0996C25.2179 70.879 26.9414 69.156 26.9414 67.0381V59.5255C26.9414 57.4076 25.2181 55.6846 23.0996 55.6846H15.586C13.4678 55.6846 11.7444 57.4076 11.7444 59.5255V67.0381ZM15.1794 59.5255C15.1794 59.3013 15.362 59.1189 15.586 59.1189H23.0996C23.324 59.1189 23.5063 59.3013 23.5063 59.5255V67.0381C23.5063 67.2623 23.3237 67.4447 23.0996 67.4447H15.586C15.3618 67.4447 15.1794 67.2623 15.1794 67.0381V59.5255Z" fill="#B494B3"/>
<path d="M11.7444 91.6048C11.7444 93.7227 13.4676 95.4457 15.586 95.4457H23.0996C25.2179 95.4457 26.9414 93.7227 26.9414 91.6048V84.0921C26.9414 81.974 25.2181 80.251 23.0996 80.251H15.586C13.4678 80.251 11.7444 81.974 11.7444 84.0921V91.6048ZM15.1794 84.0921C15.1794 83.8679 15.362 83.6856 15.586 83.6856H23.0996C23.324 83.6856 23.5063 83.8679 23.5063 84.0921V91.6048C23.5063 91.8289 23.3237 92.0113 23.0996 92.0113H15.586C15.3618 92.0113 15.1794 91.8289 15.1794 91.6048V84.0921Z" fill="#B494B3"/>
</svg>
