<svg width="99" height="99" viewBox="0 0 99 99" fill="none" xmlns="http://www.w3.org/2000/svg">
<path d="M43.2227 85.2489C51.7144 85.2593 60.0135 82.7199 67.0455 77.9597L85.1571 96.0105C85.9421 96.804 86.8829 97.4264 87.9201 97.8386C88.9573 98.2509 90.0687 98.4441 91.1842 98.4061C92.2997 98.3681 93.3953 98.0997 94.4021 97.6178C95.4089 97.1359 96.305 96.451 97.0343 95.606C97.7635 94.761 98.3101 93.7742 98.6395 92.7078C98.969 91.6413 99.0742 90.5183 98.9487 89.4092C98.8231 88.3001 98.4694 87.229 97.9098 86.2632C97.3503 85.2974 96.597 84.4579 95.6973 83.7973L76.2949 69.4895C82.3916 61.9795 85.7527 52.6192 85.8258 42.9463C85.899 33.2734 82.6798 23.8633 76.6974 16.262C70.7149 8.66073 62.3248 3.32034 52.9056 1.11826C43.4865 -1.08383 33.5984 -0.0166375 24.866 4.1445C16.1336 8.30563 9.07623 15.3132 4.85339 24.0159C0.630544 32.7187 -0.506617 42.5989 1.62874 52.0335C3.76409 61.468 9.04495 69.8956 16.6037 75.9318C24.1625 81.9679 33.5495 85.2536 43.2227 85.2489ZM93.7552 86.4414C94.312 86.8494 94.7738 87.3731 95.1088 87.9766C95.4438 88.5801 95.6442 89.249 95.6961 89.9373C95.748 90.6255 95.6502 91.3169 95.4095 91.9638C95.1687 92.6107 94.7907 93.1978 94.3014 93.6847C93.3783 94.5576 92.1561 95.0439 90.8856 95.0439C89.6152 95.0439 88.3929 94.5576 87.4698 93.6847L69.7126 75.9881C71.2706 74.7489 72.7415 73.404 74.115 71.963L93.7552 86.4414ZM43.2227 3.23689C51.0085 3.23689 58.6195 5.54566 65.0931 9.87122C71.5668 14.1968 76.6124 20.3449 79.5919 27.538C82.5714 34.7312 83.351 42.6463 81.8321 50.2825C80.3131 57.9188 76.5639 64.9331 71.0585 70.4385C65.5531 75.9439 58.5388 79.6931 50.9026 81.212C43.2664 82.731 35.3512 81.9514 28.1581 78.9719C20.9649 75.9924 14.8168 70.9468 10.4913 64.4731C6.16569 57.9995 3.85693 50.3885 3.85693 42.6027C3.86908 32.1659 8.02044 22.1602 15.4003 14.7803C22.7802 7.4004 32.786 3.24905 43.2227 3.23689Z" fill="#B494B3"/>
<path d="M21.9004 27.9799V57.5042C21.9004 59.2443 22.5916 60.9131 23.8221 62.1435C25.0525 63.374 26.7213 64.0652 28.4614 64.0652H57.9857C59.7258 64.0652 61.3946 63.374 62.625 62.1435C63.8554 60.9131 64.5466 59.2443 64.5466 57.5042V27.9799C64.5466 26.2398 63.8554 24.571 62.625 23.3406C61.3946 22.1102 59.7258 21.4189 57.9857 21.4189H28.4614C26.7213 21.4189 25.0525 22.1102 23.8221 23.3406C22.5916 24.571 21.9004 26.2398 21.9004 27.9799ZM57.9857 60.7847H28.4614C27.5913 60.7847 26.7569 60.4391 26.1417 59.8239C25.5265 59.2087 25.1809 58.3743 25.1809 57.5042V37.8214H61.2662V57.5042C61.2662 58.3743 60.9205 59.2087 60.3053 59.8239C59.6901 60.4391 58.8557 60.7847 57.9857 60.7847ZM61.2662 27.9799V34.5409H25.1809V27.9799C25.1809 27.1099 25.5265 26.2755 26.1417 25.6603C26.7569 25.045 27.5913 24.6994 28.4614 24.6994H57.9857C58.8557 24.6994 59.6901 25.045 60.3053 25.6603C60.9205 26.2755 61.2662 27.1099 61.2662 27.9799Z" fill="#B494B3"/>
<path d="M43.2235 78.8268C52.794 78.8268 61.9724 75.025 68.7397 68.2577C75.507 61.4904 79.3088 52.3119 79.3088 42.7415C79.3088 33.1711 75.507 23.9927 68.7397 17.2254C61.9724 10.4581 52.794 6.65625 43.2235 6.65625C42.7885 6.65625 42.3713 6.82906 42.0637 7.13667C41.7561 7.44427 41.5833 7.86147 41.5833 8.29649C41.5833 8.73151 41.7561 9.14871 42.0637 9.45631C42.3713 9.76392 42.7885 9.93673 43.2235 9.93673C51.4887 9.94009 59.4479 13.0643 65.5083 18.6843C71.5688 24.3043 75.2836 32.0056 75.9094 40.247C76.5352 48.4885 74.0259 56.6624 68.8835 63.133C63.7412 69.6037 56.3451 73.894 48.1752 75.1453C40.0052 76.3967 31.6641 74.5169 24.8207 69.882C17.9774 65.2471 13.1366 58.1991 11.2669 50.1481C9.39729 42.0971 10.6367 33.6371 14.7372 26.4608C18.8377 19.2845 25.4968 13.9212 33.3821 11.4441C33.7971 11.3136 34.1433 11.0236 34.3445 10.6378C34.5456 10.2521 34.5853 9.80226 34.4548 9.38725C34.3243 8.97224 34.0343 8.62607 33.6486 8.4249C33.2628 8.22373 32.813 8.18403 32.398 8.31453C24.1707 10.8987 17.1409 16.3437 12.5817 23.6635C8.02247 30.9833 6.23534 39.6938 7.54396 48.2175C8.85258 56.7411 13.1704 64.5144 19.7155 70.1293C26.2605 75.7443 34.6 78.8297 43.2235 78.8268Z" fill="#B494B3"/>
<path d="M30.1002 31.26H31.7404C32.1755 31.26 32.5927 31.0872 32.9003 30.7796C33.2079 30.472 33.3807 30.0548 33.3807 29.6197C33.3807 29.1847 33.2079 28.7675 32.9003 28.4599C32.5927 28.1523 32.1755 27.9795 31.7404 27.9795H30.1002C29.6652 27.9795 29.248 28.1523 28.9404 28.4599C28.6328 28.7675 28.46 29.1847 28.46 29.6197C28.46 30.0548 28.6328 30.472 28.9404 30.7796C29.248 31.0872 29.6652 31.26 30.1002 31.26Z" fill="#B494B3"/>
<path d="M38.3014 31.26H39.9416C40.3766 31.26 40.7938 31.0872 41.1014 30.7796C41.409 30.472 41.5819 30.0548 41.5819 29.6197C41.5819 29.1847 41.409 28.7675 41.1014 28.4599C40.7938 28.1523 40.3766 27.9795 39.9416 27.9795H38.3014C37.8664 27.9795 37.4492 28.1523 37.1415 28.4599C36.8339 28.7675 36.6611 29.1847 36.6611 29.6197C36.6611 30.0548 36.8339 30.472 37.1415 30.7796C37.4492 31.0872 37.8664 31.26 38.3014 31.26Z" fill="#B494B3"/>
<path d="M54.7042 54.2235H53.0639V47.6625C53.0639 47.2275 52.8911 46.8103 52.5835 46.5027C52.2759 46.1951 51.8587 46.0223 51.4237 46.0223C50.9887 46.0223 50.5715 46.1951 50.2639 46.5027C49.9563 46.8103 49.7835 47.2275 49.7835 47.6625V54.2235H46.503V44.382C46.503 43.947 46.3302 43.5298 46.0226 43.2222C45.715 42.9146 45.2978 42.7418 44.8627 42.7418C44.4277 42.7418 44.0105 42.9146 43.7029 43.2222C43.3953 43.5298 43.2225 43.947 43.2225 44.382V54.2235H39.942V49.3028C39.942 48.8677 39.7692 48.4505 39.4616 48.1429C39.154 47.8353 38.7368 47.6625 38.3018 47.6625C37.8668 47.6625 37.4496 47.8353 37.142 48.1429C36.8344 48.4505 36.6615 48.8677 36.6615 49.3028V54.2235H33.3811V42.7418C33.3811 42.3068 33.2083 41.8896 32.9007 41.582C32.593 41.2744 32.1758 41.1016 31.7408 41.1016C31.3058 41.1016 30.8886 41.2744 30.581 41.582C30.2734 41.8896 30.1006 42.3068 30.1006 42.7418V55.8637C30.1006 56.2987 30.2734 56.7159 30.581 57.0236C30.8886 57.3312 31.3058 57.504 31.7408 57.504H54.7042C55.1392 57.504 55.5564 57.3312 55.864 57.0236C56.1716 56.7159 56.3444 56.2987 56.3444 55.8637C56.3444 55.4287 56.1716 55.0115 55.864 54.7039C55.5564 54.3963 55.1392 54.2235 54.7042 54.2235Z" fill="#B494B3"/>
</svg>
