<svg width="43" height="43" viewBox="0 0 43 43" fill="none" xmlns="http://www.w3.org/2000/svg">
<path d="M21.25 18.5937C21.25 18.959 20.9512 19.2578 20.5859 19.2578H19.2578C18.8926 19.2578 18.5938 18.959 18.5938 18.5937C18.5938 18.2285 18.8926 17.9297 19.2578 17.9297H20.5859C20.9512 17.9297 21.25 18.2285 21.25 18.5937ZM25.2344 18.5937C25.2344 18.2285 24.9355 17.9297 24.5703 17.9297H23.2422C22.877 17.9297 22.5781 18.2285 22.5781 18.5937C22.5781 18.959 22.877 19.2578 23.2422 19.2578H24.5703C24.9355 19.2578 25.2344 18.959 25.2344 18.5937ZM27.2266 19.2578H28.5547C28.9199 19.2578 29.2188 18.959 29.2188 18.5937C29.2188 18.2285 28.9199 17.9297 28.5547 17.9297H27.2266C26.8613 17.9297 26.5625 18.2285 26.5625 18.5937C26.5625 18.959 26.8613 19.2578 27.2266 19.2578ZM37.1875 8.63281V12.6172H37.8516C38.2168 12.6172 38.5156 12.916 38.5156 13.2812V15.2734C38.5156 15.4527 38.4426 15.6187 38.323 15.7449L37.659 16.409C37.5461 16.5219 37.3934 16.5816 37.234 16.5949V16.6016V17.352C37.234 17.4848 37.3004 17.6043 37.3934 17.6441C38.3762 18.0359 38.934 19.0453 38.748 20.0945C38.5887 21.0043 37.8383 21.7414 36.9219 21.8875C36.8023 21.9074 36.6828 21.9141 36.5699 21.9141C35.8992 21.9141 35.2684 21.6152 34.8434 21.084C34.6176 20.7984 34.6641 20.3801 34.9496 20.1477C35.2352 19.9219 35.6535 19.9684 35.8859 20.2539C36.0852 20.5062 36.3973 20.6258 36.7227 20.5727C37.0812 20.5195 37.3867 20.2207 37.4465 19.8621C37.5328 19.3641 37.2273 19.0055 36.902 18.8727C36.3109 18.6336 35.9125 18.0227 35.9125 17.3453V16.5949H35.866C35.6867 16.5949 35.5207 16.5219 35.3945 16.4023L34.7305 15.7383C34.6043 15.6121 34.5379 15.4461 34.5379 15.2668V13.2746C34.5379 12.9094 34.8367 12.6105 35.202 12.6105H35.866V8.62617H9.29688V25.2277H10.625C10.9902 25.2277 11.2891 25.5266 11.2891 25.8918V27.884H11.9531C12.3184 27.884 12.6172 28.1828 12.6172 28.548V31.2043C12.6172 31.5695 12.3184 31.8684 11.9531 31.8684H11.2891V33.4156C11.6477 33.4953 11.9332 33.6082 12.1922 33.7078C12.6305 33.8805 13.0023 34.0332 13.8059 34.0332C14.6094 34.0332 14.9812 33.8805 15.4195 33.7078C15.9109 33.5086 16.4688 33.2895 17.5246 33.2895H17.6242L14.6426 23.6937C14.5363 23.3484 14.7223 22.9832 15.0609 22.8703L15.9375 22.5715V17.3918C15.9375 16.2164 16.8937 15.2602 18.0691 15.2602H21.25V12.8297C21.25 11.973 21.9473 11.2758 22.8039 11.2758H25.0086C25.8652 11.2758 26.5625 11.973 26.5625 12.8297V15.2602H29.7434C30.9188 15.2602 31.875 16.2164 31.875 17.3918V22.5715L32.7516 22.8703C33.0902 22.9832 33.2762 23.3551 33.1699 23.6937L30.0289 33.8074C30.1152 33.7742 30.2016 33.741 30.2879 33.7078C30.7793 33.5086 31.3371 33.2895 32.393 33.2895C33.4488 33.2895 34.0066 33.5152 34.498 33.7078C34.9363 33.8805 35.3082 34.0332 36.1117 34.0332C36.9152 34.0332 37.2938 33.8805 37.732 33.7078C38.2234 33.5086 38.7812 33.2895 39.8371 33.2895C40.2023 33.2895 40.5012 33.5883 40.5012 33.9535V37.9379C40.5012 38.3031 40.2023 38.602 39.8371 38.602C39.0336 38.602 38.6617 38.7547 38.2234 38.9273C37.732 39.1266 37.1742 39.3457 36.1117 39.3457C35.0492 39.3457 34.498 39.1199 34.0066 38.9273C33.5684 38.7547 33.1965 38.602 32.393 38.602C31.5895 38.602 31.2176 38.7547 30.7793 38.9273C30.2879 39.1266 29.7301 39.3457 28.6742 39.3457C27.6184 39.3457 27.0605 39.1199 26.5691 38.9273C26.1309 38.7547 25.759 38.602 24.9555 38.602C24.152 38.602 23.7801 38.7547 23.3418 38.9273C22.8504 39.1266 22.2926 39.3457 21.2367 39.3457C20.1809 39.3457 19.623 39.1199 19.1316 38.9273C18.6934 38.7547 18.3215 38.602 17.518 38.602C16.7145 38.602 16.3426 38.7547 15.9043 38.9273C15.4129 39.1266 14.8551 39.3457 13.7992 39.3457C12.7434 39.3457 12.1855 39.1266 11.6941 38.9273C11.5547 38.8742 11.4219 38.8211 11.2824 38.7746V39.173C11.2824 39.5383 10.9836 39.8371 10.6184 39.8371H2.65625C2.29102 39.8371 1.99219 39.5383 1.99219 39.173V25.8918C1.99219 25.5266 2.29102 25.2277 2.65625 25.2277H3.98438V3.10117C3.98438 2.47695 4.56875 1.99219 5.3125 1.99219H7.96875C8.7125 1.99219 9.29688 2.47695 9.29688 3.10117V3.32031H39.1797C39.9102 3.32031 40.5078 3.91797 40.5078 4.64844V7.30469C40.5078 8.03516 39.9102 8.63281 39.1797 8.63281H37.1875ZM36.1316 15.2734H36.9086L37.1809 15.0012V13.9453H35.8527V15.0012L36.125 15.2734H36.1316ZM16.4488 25.0617L23.6871 22.6113C23.8266 22.5648 23.9727 22.5648 24.1121 22.6113L31.357 25.0617L31.709 23.9262L23.8996 21.2832L16.0902 23.9262L16.4422 25.0617H16.4488ZM22.5715 15.2734H25.2277V12.843C25.2277 12.7168 25.1281 12.6172 25.002 12.6172H22.7973C22.6711 12.6172 22.5715 12.7168 22.5715 12.843V15.2734ZM17.259 22.1332L23.6871 19.9551C23.8266 19.9086 23.9727 19.9086 24.1121 19.9551L30.5402 22.1332V17.4051C30.5402 16.9602 30.1816 16.6016 29.7367 16.6016H18.0625C17.6176 16.6016 17.259 16.9602 17.259 17.4051V22.1332ZM19.0719 33.5152C19.2777 33.5816 19.4504 33.648 19.623 33.7145C20.0613 33.8871 20.4332 34.0398 21.2367 34.0398C22.0402 34.0398 22.4121 33.8871 22.8504 33.7145C23.3418 33.5152 23.8996 33.2961 24.9555 33.2961C26.0113 33.2961 26.5691 33.5219 27.0605 33.7145C27.4723 33.8805 27.8375 34.0199 28.568 34.0332L30.9586 26.3301L23.8996 23.9395L16.8406 26.3301L19.0719 33.5086V33.5152ZM11.2824 34.8035V37.4133C11.641 37.493 11.9266 37.6059 12.1855 37.7055C12.6238 37.8781 12.9957 38.0309 13.7992 38.0309C14.6027 38.0309 14.9746 37.8781 15.4129 37.7055C15.9043 37.5062 16.4621 37.2871 17.518 37.2871C18.5738 37.2871 19.1316 37.5129 19.623 37.7055C20.0613 37.8781 20.4332 38.0309 21.2367 38.0309C22.0402 38.0309 22.4121 37.8781 22.8504 37.7055C23.3418 37.5062 23.8996 37.2871 24.9555 37.2871C26.0113 37.2871 26.5691 37.5129 27.0605 37.7055C27.4988 37.8781 27.8707 38.0309 28.6742 38.0309C29.4777 38.0309 29.8496 37.8781 30.2879 37.7055C30.7793 37.5062 31.3371 37.2871 32.393 37.2871C33.4488 37.2871 34.0066 37.5129 34.498 37.7055C34.9363 37.8781 35.3082 38.0309 36.1117 38.0309C36.9152 38.0309 37.2938 37.8781 37.732 37.7055C38.1105 37.5527 38.5223 37.3867 39.173 37.3203V34.6773C38.7879 34.7371 38.5156 34.8434 38.2234 34.9562C37.732 35.1555 37.1742 35.3746 36.1117 35.3746C35.0492 35.3746 34.498 35.1488 34.0066 34.9562C33.5684 34.7836 33.1965 34.6309 32.393 34.6309C31.5895 34.6309 31.2176 34.7836 30.7793 34.9562C30.2879 35.1555 29.7301 35.3746 28.6742 35.3746C27.6184 35.3746 27.0605 35.1488 26.5691 34.9562C26.1309 34.7836 25.759 34.6309 24.9555 34.6309C24.152 34.6309 23.7801 34.7836 23.3418 34.9562C22.8504 35.1555 22.2926 35.3746 21.2367 35.3746C20.1809 35.3746 19.623 35.1488 19.1316 34.9562C18.6934 34.7836 18.3215 34.6309 17.518 34.6309C16.7145 34.6309 16.3426 34.7836 15.9043 34.9562C15.4129 35.1555 14.8551 35.3746 13.7992 35.3746C12.7434 35.3746 12.1855 35.1555 11.6941 34.9562C11.5547 34.9031 11.4219 34.85 11.2824 34.8035ZM9.9543 31.8816H3.32031V38.5223H9.96094V31.8816H9.9543ZM11.2824 29.2254H3.32031V30.5535H11.2891V29.2254H11.2824ZM9.9543 26.5691H3.32031V27.8973H9.96094V26.5691H9.9543ZM7.96211 25.241V3.32031H5.30586V25.2344H7.96211V25.241ZM9.29023 7.31133H39.173V4.65508H9.29688V7.31133H9.29023Z" fill="#B0C252"/>
</svg>
