<svg width="119" height="106" viewBox="0 0 119 106" fill="none" xmlns="http://www.w3.org/2000/svg">
<path d="M67.6945 73.4489C57.853 83.2905 41.8967 83.2905 32.0551 73.4489C22.2134 63.6074 22.2134 47.6509 32.0551 37.8094C41.8967 27.9678 57.853 27.9678 67.6945 37.8094C77.536 47.6509 77.536 63.6074 67.6945 73.4489Z" stroke="#B494B3" stroke-width="3.4676" stroke-miterlimit="10" stroke-linecap="round" stroke-linejoin="round"/>
<path d="M61.1907 69.5391C54.149 75.2826 43.7614 74.8723 37.1975 68.3086C30.1959 61.307 30.1959 49.955 37.1975 42.9535C44.1992 35.9519 55.551 35.9519 62.5526 42.9535C67.963 48.3638 69.1924 56.3724 66.241 62.9634" stroke="#B494B3" stroke-width="3.4676" stroke-miterlimit="10" stroke-linecap="round" stroke-linejoin="round"/>
<path d="M26.4386 79.0663C24.2142 76.8419 20.6077 76.8419 18.3831 79.0663L3.40166 94.048C1.17731 96.2723 1.17731 99.8789 3.40166 102.103C5.62625 104.328 9.23279 104.328 11.4571 102.103L26.4386 87.122C28.6632 84.8974 28.6632 81.2909 26.4386 79.0663Z" stroke="#B494B3" stroke-width="3.4676" stroke-miterlimit="10" stroke-linecap="round" stroke-linejoin="round"/>
<path d="M32.0548 73.4503L26.4385 79.0664" stroke="#B494B3" stroke-width="3.4676" stroke-miterlimit="10" stroke-linecap="round" stroke-linejoin="round"/>
<path d="M18.1436 23.5426V18.6332C18.1436 15.9863 20.2893 13.8405 22.936 13.8405H63.436C64.4393 13.8405 65.4188 14.0574 66.3137 14.467C67.065 14.8061 67.7548 15.2796 68.3485 15.8753L79.5724 27.0995C80.1658 27.6952 80.6393 28.3827 80.9807 29.134C81.3906 30.0291 81.6072 31.0086 81.6072 32.0119V92.572C81.6072 95.2499 79.4362 97.4209 76.7581 97.4209H22.9927C21.1379 97.4209 19.5267 96.3797 18.7111 94.8502" stroke="#B494B3" stroke-width="3.4676" stroke-miterlimit="10" stroke-linecap="round" stroke-linejoin="round"/>
<path d="M18.1436 79.3066V31.815" stroke="#B494B3" stroke-width="3.4676" stroke-miterlimit="10" stroke-linecap="round" stroke-linejoin="round"/>
<path d="M80.981 29.1338H70.8826C68.3605 29.1338 66.3135 27.0867 66.3135 24.5644V14.4663C67.0662 14.8059 67.7546 15.2786 68.349 15.8753L79.5717 27.0981C80.1663 27.6947 80.6391 28.3811 80.981 29.1338Z" stroke="#B494B3" stroke-width="3.4676" stroke-miterlimit="10" stroke-linecap="round" stroke-linejoin="round"/>
<path d="M29.3926 13.8394V7.38275C29.3926 4.73604 31.5383 2.59052 34.185 2.59052H74.6848C75.6881 2.59052 76.6678 2.80712 77.5629 3.21699C78.314 3.55613 79.0041 4.02934 79.5975 4.62531L90.8214 15.849C91.4149 16.445 91.8883 17.1327 92.2297 17.8838C92.6394 18.7787 92.8562 19.7584 92.8562 20.7617V81.3218C92.8562 83.9997 90.685 86.1709 88.0071 86.1709H81.6073" stroke="#B494B3" stroke-width="3.4676" stroke-miterlimit="10" stroke-linecap="round" stroke-linejoin="round"/>
<path d="M92.23 17.8848H82.1319C79.6095 17.8848 77.5625 15.8377 77.5625 13.3152V3.21703C78.3152 3.55685 79.0036 4.02937 79.598 4.62603L90.8208 15.8488C91.4156 16.4457 91.8881 17.1318 92.23 17.8848Z" stroke="#B494B3" stroke-width="3.4676" stroke-miterlimit="10" stroke-linecap="round" stroke-linejoin="round"/>
<path d="M111.519 40.1162H102.489C100.968 40.1162 99.7344 38.8829 99.7344 37.3618V28.3312C99.7344 26.8101 100.968 25.5768 102.489 25.5768H111.519C113.041 25.5768 114.274 26.8101 114.274 28.3312V37.3618C114.274 38.8829 113.041 40.1162 111.519 40.1162Z" stroke="#B494B3" stroke-width="3.4676" stroke-miterlimit="10" stroke-linecap="round" stroke-linejoin="round"/>
<path d="M116.627 24.2131L107.004 33.8359L100.112 26.944" stroke="#B494B3" stroke-width="3.4676" stroke-miterlimit="10" stroke-linecap="round" stroke-linejoin="round"/>
<path d="M114.274 65.0553V66.0588C114.274 67.5802 113.041 68.8135 111.519 68.8135H102.489C100.968 68.8135 99.7344 67.5802 99.7344 66.0588V57.0285C99.7344 55.5071 100.968 54.274 102.489 54.274H111.519C112.533 54.274 113.418 54.8212 113.897 55.6363" stroke="#B494B3" stroke-width="3.4676" stroke-miterlimit="10" stroke-linecap="round" stroke-linejoin="round"/>
<path d="M116.627 52.9072L107.004 62.5303L100.112 55.6381" stroke="#B494B3" stroke-width="3.4676" stroke-miterlimit="10" stroke-linecap="round" stroke-linejoin="round"/>
</svg>
