<svg width="47" height="46" viewBox="0 0 47 46" fill="none" xmlns="http://www.w3.org/2000/svg">
<circle cx="23.7217" cy="22.8838" r="22.8838" fill="#B494B3"/>
<path d="M26.945 21.3826C27.0134 21.7436 27.0621 22.1046 27.0621 22.5729C27.0621 26.6607 24.3206 29.5582 20.1938 29.5582C16.2427 29.5582 13.0427 26.3583 13.0427 22.407C13.0427 18.4558 16.2427 15.2559 20.1938 15.2559C22.1256 15.2559 23.7353 15.9583 24.9841 17.129L23.0426 18.9924C22.5157 18.4851 21.589 17.89 20.1938 17.89C17.7548 17.89 15.7646 19.9095 15.7646 22.407C15.7646 24.9046 17.7548 26.9241 20.1938 26.9241C23.0231 26.9241 24.0865 24.8851 24.2523 23.8412H20.1938V21.3826H26.945V21.3826ZM33.8506 21.6224V19.5466H31.7648V21.6224H29.689V23.7082H31.7648V25.784H33.8506V23.7082H35.9265V21.6224H33.8506Z" fill="white"/>
</svg>
