<svg width="47" height="46" viewBox="0 0 47 46" fill="none" xmlns="http://www.w3.org/2000/svg">
<circle cx="23.1865" cy="22.8838" r="22.8838" fill="#B494B3"/>
<path d="M23.9518 17.7776C20.7049 17.7776 18.086 20.3966 18.086 23.6435C18.086 26.8903 20.7049 29.5093 23.9518 29.5093C27.1986 29.5093 29.8176 26.8903 29.8176 23.6435C29.8176 20.3966 27.1986 17.7776 23.9518 17.7776ZM23.9518 27.457C21.8536 27.457 20.1382 25.7468 20.1382 23.6435C20.1382 21.5401 21.8485 19.8299 23.9518 19.8299C26.0551 19.8299 27.7653 21.5401 27.7653 23.6435C27.7653 25.7468 26.05 27.457 23.9518 27.457ZM31.4257 17.5377C31.4257 18.2984 30.8131 18.9059 30.0575 18.9059C29.2969 18.9059 28.6894 18.2933 28.6894 17.5377C28.6894 16.7821 29.302 16.1695 30.0575 16.1695C30.8131 16.1695 31.4257 16.7821 31.4257 17.5377ZM35.3107 18.9263C35.2239 17.0936 34.8053 15.4701 33.4627 14.1326C32.1251 12.795 30.5017 12.3764 28.6689 12.2845C26.78 12.1773 21.1184 12.1773 19.2295 12.2845C17.4019 12.3713 15.7784 12.7899 14.4358 14.1275C13.0931 15.465 12.6796 17.0884 12.5877 18.9212C12.4805 20.8101 12.4805 26.4717 12.5877 28.3606C12.6745 30.1933 13.0931 31.8168 14.4358 33.1543C15.7784 34.4919 17.3968 34.9105 19.2295 35.0024C21.1184 35.1096 26.78 35.1096 28.6689 35.0024C30.5017 34.9156 32.1251 34.497 33.4627 33.1543C34.8002 31.8168 35.2188 30.1933 35.3107 28.3606C35.4179 26.4717 35.4179 20.8152 35.3107 18.9263ZM32.8705 30.3873C32.4723 31.388 31.7014 32.1588 30.6957 32.5621C29.1897 33.1594 25.6161 33.0216 23.9518 33.0216C22.2875 33.0216 18.7088 33.1543 17.2079 32.5621C16.2073 32.1639 15.4364 31.3931 15.0331 30.3873C14.4358 28.8813 14.5736 25.3077 14.5736 23.6435C14.5736 21.9792 14.4409 18.4005 15.0331 16.8996C15.4313 15.8989 16.2022 15.1281 17.2079 14.7248C18.7139 14.1275 22.2875 14.2653 23.9518 14.2653C25.6161 14.2653 29.1948 14.1326 30.6957 14.7248C31.6963 15.123 32.4672 15.8938 32.8705 16.8996C33.4678 18.4056 33.3299 21.9792 33.3299 23.6435C33.3299 25.3077 33.4678 28.8864 32.8705 30.3873Z" fill="white"/>
</svg>
