<svg width="16" height="16" viewBox="0 0 16 16" fill="none" xmlns="http://www.w3.org/2000/svg">
<path d="M12.6666 6.90909C12.6666 10.7273 7.99998 14 7.99998 14C7.99998 14 3.33331 10.7273 3.33331 6.90909C3.33331 5.60712 3.82498 4.35847 4.70015 3.43784C5.57532 2.51721 6.7623 2 7.99998 2C9.23766 2 10.4246 2.51721 11.2998 3.43784C12.175 4.35847 12.6666 5.60712 12.6666 6.90909Z" stroke="#F5F5F5" stroke-linecap="round" stroke-linejoin="round"/>
<path d="M7.99997 8.66699C9.10454 8.66699 9.99997 7.77156 9.99997 6.66699C9.99997 5.56242 9.10454 4.66699 7.99997 4.66699C6.8954 4.66699 5.99997 5.56242 5.99997 6.66699C5.99997 7.77156 6.8954 8.66699 7.99997 8.66699Z" stroke="#F5F5F5" stroke-linecap="round" stroke-linejoin="round"/>
</svg>
