<svg width="30" height="45" viewBox="0 0 30 45" fill="none" xmlns="http://www.w3.org/2000/svg">
<path d="M27.1616 2.93029H18.4281C18.2563 2.21684 17.8494 1.58195 17.273 1.12782C16.6966 0.673698 15.9841 0.426758 15.2502 0.426758C14.5164 0.426758 13.8039 0.673698 13.2275 1.12782C12.651 1.58195 12.2442 2.21684 12.0724 2.93029H3.33824C2.69 2.93106 2.06854 3.18891 1.61017 3.64728C1.1518 4.10565 0.893955 4.72711 0.893193 5.37535V41.6453C0.891917 42.2956 1.14861 42.9199 1.60698 43.3812C2.06535 43.8424 2.68795 44.1031 3.33824 44.1059H27.1616C27.8118 44.1031 28.4345 43.8424 28.8928 43.3811C29.3512 42.9198 29.6079 42.2956 29.6066 41.6453V5.37535C29.6058 4.72711 29.348 4.10565 28.8896 3.64728C28.4312 3.18891 27.8098 2.93106 27.1616 2.93029ZM19.6911 8.76797C19.6893 8.78926 19.6788 8.80761 19.6788 8.82935L19.7043 10.738L10.821 10.7635C10.8307 9.78558 10.7985 7.89507 10.7954 6.91929H19.6788L19.6911 8.76797ZM10.7954 12.1911H19.7043C20.0829 12.1908 20.4458 12.0403 20.7135 11.7727C20.9811 11.505 21.1316 11.1421 21.1319 10.7635V9.55591H24.8173V39.2996H5.68325V9.55591H9.36786V10.7635C9.36827 11.142 9.51881 11.5049 9.78644 11.7725C10.0541 12.0402 10.4169 12.1907 10.7954 12.1911ZM15.2499 1.84614C15.7283 1.84685 16.187 2.03648 16.5262 2.37375C16.8654 2.71103 17.0577 3.16865 17.0612 3.647C17.0679 3.67072 17.0612 5.43683 17.0635 5.46617H13.437C13.439 5.44021 13.4334 3.66938 13.439 3.64883C13.4418 3.17018 13.6338 2.71208 13.973 2.37439C14.3123 2.0367 14.7712 1.84682 15.2499 1.84614ZM28.1535 41.6453C28.155 41.9103 28.0515 42.1651 27.8656 42.3539C27.6797 42.5428 27.4265 42.6502 27.1616 42.6529H3.33824C3.07322 42.6504 2.82001 42.5429 2.63408 42.3541C2.44815 42.1652 2.34467 41.9103 2.34632 41.6453V5.37535C2.3467 5.11239 2.45133 4.86031 2.63726 4.67437C2.8232 4.48843 3.07528 4.3838 3.33824 4.38341H11.9839V5.46617H10.7954C10.4169 5.46658 10.0541 5.61711 9.78644 5.88475C9.51881 6.15238 9.36827 6.51525 9.36786 6.89375V8.10275H4.95668C4.86125 8.10269 4.76675 8.12145 4.67858 8.15794C4.5904 8.19444 4.51028 8.24795 4.44281 8.31543C4.37533 8.38291 4.32181 8.46303 4.28532 8.5512C4.24882 8.63938 4.23007 8.73388 4.23012 8.82931V40.0261C4.23007 40.1216 4.24882 40.2161 4.28532 40.3042C4.32181 40.3924 4.37533 40.4725 4.44281 40.54C4.51028 40.6075 4.5904 40.661 4.67858 40.6975C4.76675 40.734 4.86125 40.7527 4.95668 40.7527H25.5438C25.6393 40.7527 25.7338 40.734 25.8219 40.6975C25.9101 40.661 25.9902 40.6075 26.0577 40.54C26.1252 40.4725 26.1787 40.3924 26.2152 40.3042C26.2517 40.2161 26.2704 40.1216 26.2704 40.0261V8.82935C26.2704 8.73392 26.2517 8.63942 26.2152 8.55124C26.1787 8.46307 26.1252 8.38295 26.0577 8.31547C25.9902 8.24799 25.9101 8.19448 25.8219 8.15798C25.7338 8.12149 25.6393 8.10273 25.5438 8.10279H21.1319V6.89379C21.1316 6.51526 20.9811 6.15232 20.7135 5.88465C20.4458 5.61699 20.0829 5.4665 19.7043 5.46621H18.5166V4.38341H27.1616C27.4245 4.38392 27.6765 4.48859 27.8624 4.67451C28.0483 4.86042 28.153 5.11243 28.1535 5.37535V41.6453ZM15.2499 2.93206C15.4382 2.93859 15.6167 3.01799 15.7476 3.15354C15.8785 3.28908 15.9517 3.47017 15.9517 3.65863C15.9517 3.84708 15.8785 4.02817 15.7476 4.16371C15.6167 4.29926 15.4382 4.37866 15.2499 4.38519C15.0616 4.37866 14.8831 4.29926 14.7522 4.16371C14.6212 4.02817 14.5481 3.84708 14.5481 3.65863C14.5481 3.47017 14.6212 3.28908 14.7522 3.15354C14.8831 3.01799 15.0616 2.93859 15.2499 2.93206ZM8.81088 16.9464L7.43789 19.3248C7.39014 19.4073 7.35914 19.4985 7.34667 19.5931C7.3342 19.6877 7.3405 19.7838 7.36521 19.8759C7.38993 19.9681 7.43257 20.0544 7.4907 20.13C7.54883 20.2057 7.6213 20.2691 7.70398 20.3167L9.09462 21.1199C8.94916 21.8659 8.94916 22.633 9.09462 23.379C8.42077 23.8644 6.93003 24.2235 7.43785 25.1741C7.93822 25.9194 8.80571 27.8978 9.25208 27.8917C9.6869 28.0739 10.8176 27.1699 11.1892 27.0175C11.7694 27.5072 12.4339 27.8871 13.1503 28.1386V29.7507C13.1503 29.8461 13.169 29.9406 13.2055 30.0288C13.242 30.1169 13.2955 30.1971 13.363 30.2645C13.4305 30.332 13.5106 30.3855 13.5988 30.422C13.6869 30.4585 13.7815 30.4773 13.8769 30.4772H16.6228C17.6981 30.4404 17.2662 28.9822 17.3486 28.1386C18.0655 27.8873 18.7306 27.5074 19.3112 27.0175C19.6896 27.1725 20.8079 28.0735 21.2467 27.8917C21.685 27.9098 22.572 25.9006 23.0604 25.1742C23.5701 24.2244 22.077 23.8633 21.4015 23.3762C21.5611 22.6335 21.5611 21.8654 21.4015 21.1227C22.0768 20.6357 23.57 20.2748 23.0604 19.3248C22.5544 18.5697 21.693 16.5998 21.2469 16.6072C20.8137 16.4227 19.6822 17.3302 19.3112 17.4814C18.7306 16.9915 18.0655 16.6116 17.3486 16.3603V14.7483C17.3487 14.6529 17.33 14.5584 17.2935 14.4703C17.2571 14.3822 17.2036 14.3021 17.1362 14.2346C17.0688 14.1671 16.9888 14.1136 16.9007 14.0771C16.8126 14.0405 16.7181 14.0217 16.6228 14.0217H13.877C12.8007 14.0584 13.2329 15.5161 13.1504 16.3603C12.434 16.6118 11.7694 16.9917 11.1892 17.4814C10.4485 17.1506 9.38101 16.029 8.81088 16.9464ZM9.70631 18.303L10.9267 19.0069C11.0663 19.0879 11.2289 19.1201 11.3888 19.0982C11.5486 19.0764 11.6967 19.0018 11.8094 18.8863C12.4265 18.26 13.2042 17.8157 14.0572 17.602C14.8948 17.4088 14.5292 16.1251 14.6035 15.4748H15.8963C15.9706 16.1262 15.6051 17.4084 16.4427 17.602C17.2958 17.8158 18.0737 18.2601 18.6912 18.8863C18.8038 19.002 18.9518 19.0768 19.1118 19.0986C19.2717 19.1205 19.4344 19.0882 19.5739 19.0069L20.7943 18.303L21.44 19.4227L20.2039 20.1365C19.4464 20.5843 20.183 21.6542 20.0676 22.2495C20.1829 22.8448 19.4464 23.9146 20.2039 24.3625L21.44 25.0763L20.7943 26.1959L19.5739 25.492C19.4344 25.4107 19.2717 25.3784 19.1118 25.4003C18.9518 25.4222 18.8038 25.4969 18.6912 25.6127C18.0737 26.2388 17.2958 26.6831 16.4427 26.8969C15.6051 27.0902 15.9707 28.3738 15.8963 29.0241H14.6036C14.5292 28.3727 14.8948 27.0906 14.0572 26.8969C13.2042 26.6833 12.4265 26.239 11.8094 25.6127C11.697 25.4966 11.5489 25.4216 11.3889 25.3997C11.2288 25.3778 11.0661 25.4104 10.9267 25.492L9.70631 26.1959L9.05991 25.0763C9.58907 24.6831 10.9045 24.3567 10.6259 23.5167C10.3782 22.69 10.3782 21.8089 10.6259 20.9822C10.6753 20.8248 10.6696 20.6552 10.6096 20.5014C10.5496 20.3476 10.439 20.2189 10.296 20.1365L9.05999 19.4227L9.70631 18.303ZM15.2499 25.4935C15.6813 25.5027 16.1102 25.4248 16.5108 25.2642C16.9113 25.1037 17.2754 24.8639 17.581 24.5592C17.8866 24.2545 18.1275 23.8913 18.2893 23.4912C18.451 23.0911 18.5303 22.6625 18.5223 22.231C18.4993 21.3754 18.142 20.5628 17.527 19.9675C16.912 19.3722 16.0882 19.0415 15.2323 19.0463C14.3763 19.0511 13.5563 19.3911 12.9481 19.9933C12.3398 20.5955 11.9917 21.4121 11.9783 22.2679C11.9748 22.6964 12.0574 23.1212 12.2211 23.5171C12.3849 23.9131 12.6265 24.2721 12.9316 24.5729C13.2367 24.8738 13.5991 25.1102 13.9974 25.2684C14.3956 25.4265 14.8215 25.503 15.2499 25.4935ZM15.2499 20.4586C15.7249 20.4586 16.1804 20.6473 16.5162 20.9832C16.8521 21.319 17.0407 21.7745 17.0407 22.2495C17.0407 22.7245 16.852 23.18 16.5161 23.5158C16.1803 23.8517 15.7248 24.0403 15.2498 24.0403C14.7748 24.0403 14.3193 23.8516 13.9835 23.5158C13.6476 23.1799 13.459 22.7244 13.459 22.2494C13.459 21.7745 13.6477 21.319 13.9836 20.9831C14.3194 20.6473 14.7749 20.4586 15.2499 20.4586ZM23.1584 32.8471C23.1584 32.9425 23.1397 33.037 23.1032 33.1252C23.0667 33.2134 23.0131 33.2935 22.9457 33.361C22.8782 33.4285 22.7981 33.482 22.7099 33.5185C22.6217 33.555 22.5272 33.5737 22.4318 33.5737H8.06729C7.87459 33.5737 7.68979 33.4971 7.55353 33.3609C7.41727 33.2246 7.34072 33.0398 7.34072 32.8471C7.34072 32.6544 7.41727 32.4696 7.55353 32.3334C7.68979 32.1971 7.87459 32.1205 8.06729 32.1205H22.4318C22.5272 32.1205 22.6217 32.1392 22.7099 32.1757C22.7981 32.2122 22.8782 32.2658 22.9457 32.3332C23.0131 32.4007 23.0667 32.4808 23.1032 32.569C23.1397 32.6572 23.1584 32.7517 23.1584 32.8471ZM23.1584 35.9435C23.1584 36.0389 23.1397 36.1334 23.1032 36.2216C23.0667 36.3098 23.0131 36.3899 22.9457 36.4574C22.8782 36.5249 22.7981 36.5784 22.7099 36.6149C22.6217 36.6514 22.5272 36.6701 22.4318 36.6701H8.06729C7.87459 36.6701 7.68979 36.5935 7.55353 36.4573C7.41727 36.321 7.34072 36.1362 7.34072 35.9435C7.34072 35.7508 7.41727 35.566 7.55353 35.4298C7.68979 35.2935 7.87459 35.217 8.06729 35.217H22.4318C22.5272 35.2169 22.6217 35.2357 22.7099 35.2721C22.7981 35.3086 22.8782 35.3621 22.9457 35.4296C23.0131 35.4971 23.0666 35.5772 23.1031 35.6654C23.1396 35.7535 23.1584 35.8481 23.1584 35.9435Z" fill="#B0C252"/>
</svg>
