<svg width="46" height="46" viewBox="0 0 46 46" fill="none" xmlns="http://www.w3.org/2000/svg">
<circle cx="22.9541" cy="22.8838" r="22.8838" fill="#B494B3"/>
<path d="M27.3478 25.6031C26.1235 26.3806 24.4391 26.6889 23.3265 26.8051L24.2603 27.7255L27.6695 31.1347C28.9161 32.4125 26.8876 34.4098 25.6276 33.1766C24.7742 32.3098 23.5231 31.0587 22.2184 29.754L18.8093 33.1721C17.5493 34.4008 15.5207 32.3857 16.7807 31.1302C17.6476 30.2634 18.8852 29.0123 20.1899 27.721L21.1103 26.8006C20.0112 26.6844 18.2999 26.394 17.0622 25.5987C15.6056 24.6604 14.9667 24.1108 15.5297 22.9625C15.8603 22.3102 16.7673 21.7606 17.9693 22.7078C17.9693 22.7078 19.5912 23.9991 22.2095 23.9991C24.8278 23.9991 26.4497 22.7078 26.4497 22.7078C27.6516 21.765 28.5542 22.3102 28.8893 22.9625C29.4433 24.1108 28.8044 24.6604 27.3478 25.6031ZM16.4099 16.4748C16.4099 13.2712 19.0148 10.6797 22.205 10.6797C25.3952 10.6797 28.0001 13.2712 28.0001 16.4748C28.0001 19.665 25.3952 22.2565 22.205 22.2565C19.0148 22.2565 16.4099 19.665 16.4099 16.4748ZM19.3588 16.4748C19.3588 18.0431 20.6367 19.321 22.205 19.321C23.7733 19.321 25.0512 18.0431 25.0512 16.4748C25.0512 14.8931 23.7733 13.6152 22.205 13.6152C20.6367 13.6152 19.3588 14.8931 19.3588 16.4748Z" fill="white"/>
</svg>
