<svg width="52" height="52" viewBox="0 0 52 52" fill="none" xmlns="http://www.w3.org/2000/svg">
<mask id="mask0_32_1075" style="mask-type:luminance" maskUnits="userSpaceOnUse" x="0" y="0" width="52" height="52">
<path d="M50.6168 50.6168V1.05016H1.05016V50.6168H50.6168Z" fill="white" stroke="white" stroke-width="2.10031"/>
</mask>
<g mask="url(#mask0_32_1075)">
<path d="M28.7693 35.2199C35.9702 35.6078 41.4133 37.3958 41.4133 39.5431C41.4133 41.9738 34.438 43.9443 25.8335 43.9443C17.2289 43.9443 10.2537 41.9738 10.2537 39.5431C10.2537 37.3958 15.6967 35.6078 22.8975 35.2199" stroke="#B0C252" stroke-width="2.10031" stroke-miterlimit="10" stroke-linecap="round" stroke-linejoin="round"/>
<path d="M5.13569 37.5512C2.83994 38.8124 1.51355 40.2988 1.51355 41.8907C1.51355 46.4541 12.402 50.1533 25.8334 50.1533C39.2649 50.1533 50.1532 46.4541 50.1532 41.8907C50.1532 40.2988 48.8269 38.8124 46.5311 37.5512" stroke="#B0C252" stroke-width="2.10031" stroke-miterlimit="10" stroke-linecap="round" stroke-linejoin="round"/>
<path d="M25.8335 17.2473C23.5459 17.2473 21.6914 15.3928 21.6914 13.1053C21.6914 10.8178 23.5459 8.9633 25.8335 8.9633C28.1211 8.9633 29.9755 10.8178 29.9755 13.1053C29.9755 15.3928 28.1211 17.2473 25.8335 17.2473ZM25.8335 1.51397C18.8981 1.51397 13.2759 7.13608 13.2759 14.0713C13.2759 18.8869 20.3119 31.0041 23.8506 36.7938C24.7572 38.2771 26.9098 38.2771 27.8164 36.7938C31.3551 31.0041 38.3911 18.8869 38.3911 14.0713C38.3911 7.13608 32.7689 1.51397 25.8335 1.51397Z" stroke="#B0C252" stroke-width="2.10031" stroke-miterlimit="10" stroke-linecap="round" stroke-linejoin="round"/>
</g>
</svg>
