<svg width="116" height="104" viewBox="0 0 116 104" fill="none" xmlns="http://www.w3.org/2000/svg">
<path d="M72.7896 43.7704H69.7946V38.2855C69.7946 30.2448 63.8696 26.0378 58.0167 26.0378C52.1638 26.0378 46.2391 30.2448 46.2391 38.2855V43.7704H43.244C42.5202 43.7712 41.8262 44.0592 41.3143 44.5711C40.8024 45.083 40.5145 45.7771 40.5136 46.501V66.6721C40.5145 67.3961 40.8024 68.0902 41.3143 68.6022C41.8262 69.1141 42.5201 69.4021 43.244 69.403H72.7896C73.5135 69.4021 74.2075 69.1141 74.7193 68.6022C75.2311 68.0902 75.519 67.3961 75.5198 66.6721V46.501C75.519 45.7771 75.2311 45.083 74.7193 44.5711C74.2074 44.0592 73.5135 43.7712 72.7896 43.7704ZM49.4907 38.2855C49.4907 32.1042 53.9109 29.2888 58.0179 29.2888C62.1248 29.2888 66.5453 32.1042 66.5453 38.2855V43.7704H49.4907V38.2855ZM72.2703 66.1513H43.7655V47.0214H72.2703V66.1513ZM94.4731 40.6446L83.2434 21.1912C83.0364 20.8331 82.7006 20.5673 82.3045 20.4481C66.54 15.7261 49.7325 15.7644 33.9897 20.5582C33.5965 20.6786 33.2635 20.9437 33.058 21.2999L21.578 41.1852C21.3773 41.5329 21.3122 41.9426 21.3955 42.3353C23.724 53.3307 28.2843 63.731 34.7942 72.8923C40.8313 81.3806 48.3845 88.6802 57.0736 94.4235C57.339 94.5982 57.6498 94.6914 57.9675 94.6914C58.2852 94.6914 58.596 94.5982 58.8614 94.4235C67.6229 88.6325 75.2288 81.2593 81.2896 72.6814C87.8323 63.4161 92.384 52.8952 94.6576 41.7824C94.7372 41.3933 94.6715 40.9886 94.4731 40.6446ZM78.6321 70.8114C73.0149 78.7606 66.0159 85.6362 57.9684 91.1107C49.9899 85.6829 43.0414 78.8778 37.448 71.0139C31.3149 62.384 26.9815 52.6076 24.7059 42.2673L35.5506 23.4811C50.2976 19.12 65.9863 19.0838 80.7533 23.3768L91.3484 41.7311C89.1239 52.1863 84.7976 62.0801 78.6321 70.8114ZM106.447 50.0098C106.831 51.1029 107.589 52.025 108.587 52.6128C109.585 53.2007 110.759 53.4163 111.901 53.2217C113.042 53.0271 114.079 52.4346 114.826 51.5493C115.573 50.664 115.983 49.5428 115.983 48.3843C115.983 47.2258 115.573 46.1046 114.826 45.2193C114.079 44.334 113.042 43.7415 111.901 43.5469C110.759 43.3522 109.585 43.5679 108.587 44.1558C107.589 44.7436 106.831 45.6657 106.447 46.7588H101.654C102.174 44.6336 102.62 42.4824 102.991 40.3053C103.055 39.9319 102.986 39.548 102.797 39.2199L97.6274 30.2646H104.509C104.723 30.2646 104.934 30.2225 105.131 30.1409C105.328 30.0592 105.507 29.9395 105.658 29.7885L109.111 26.335C110.175 26.8006 111.369 26.8746 112.482 26.5439C113.596 26.2133 114.556 25.4993 115.193 24.5285C115.83 23.5577 116.104 22.3926 115.965 21.2396C115.825 20.0866 115.283 19.02 114.433 18.2288C113.583 17.4376 112.48 16.9727 111.32 16.9166C110.16 16.8604 109.018 17.2166 108.096 17.922C107.173 18.6274 106.53 19.6365 106.28 20.7707C106.03 21.9049 106.19 23.0909 106.73 24.1188L103.836 27.0136H95.7519L89.1982 15.6634L97.7765 7.08371H100.118C100.633 8.11926 101.496 8.9397 102.557 9.40009C103.617 9.86049 104.806 9.9312 105.914 9.59975C107.021 9.2683 107.976 8.556 108.61 7.5887C109.243 6.6214 109.514 5.46135 109.375 4.31348C109.236 3.16561 108.696 2.10379 107.85 1.3156C107.004 0.527422 105.907 0.0635994 104.753 0.00607484C103.598 -0.0514497 102.46 0.301026 101.54 1.00123C100.62 1.70144 99.9772 2.70432 99.7249 3.8327H97.1032C96.6722 3.83273 96.2589 4.00396 95.9541 4.30874L86.7253 13.5391C68.0947 7.44309 47.9975 7.50447 29.4045 13.7141L20.0459 4.35402C19.7411 4.04924 19.3278 3.87801 18.8968 3.87798H16.2751C16.023 2.74689 15.3792 1.74135 14.4576 1.03908C13.5359 0.336814 12.3957 -0.0169603 11.2384 0.0402865C10.0812 0.0975332 8.98144 0.562115 8.13356 1.35192C7.28568 2.14172 6.74425 3.20589 6.60499 4.35634C6.46573 5.50679 6.73759 6.66945 7.37252 7.63881C8.00746 8.60817 8.96459 9.32182 10.0747 9.65363C11.1849 9.98544 12.3766 9.91404 13.4392 9.45205C14.5018 8.99006 15.3669 8.16723 15.8816 7.12899H18.2235L27.0158 15.9225L20.5697 27.0893V27.06H12.1649L9.26965 24.1647C9.80951 23.1377 9.96861 21.9527 9.71878 20.8196C9.46895 19.6865 8.8263 18.6783 7.90462 17.9736C6.98293 17.2689 5.84166 16.9131 4.68287 16.9693C3.52409 17.0254 2.42253 17.4898 1.57323 18.2803C0.723924 19.0707 0.181669 20.1363 0.0424641 21.2882C-0.0967406 22.4402 0.176085 23.6042 0.812638 24.5743C1.44919 25.5444 2.40841 26.2579 3.52046 26.5885C4.63252 26.9191 5.82567 26.8456 6.88868 26.3808L10.3416 29.8343C10.4925 29.9852 10.6717 30.105 10.8689 30.1867C11.0661 30.2685 11.2774 30.3105 11.4909 30.3105H18.7102L13.2394 39.7879C13.0483 40.1191 12.9799 40.507 13.0465 40.8835C13.3989 42.879 13.8151 44.8528 14.2951 46.805H9.55244C9.16875 45.712 8.41078 44.7899 7.41269 44.2021C6.41461 43.6143 5.24079 43.3987 4.099 43.5933C2.95721 43.788 1.92109 44.3804 1.17405 45.2657C0.427002 46.151 0.0172122 47.2721 0.0172122 48.4305C0.0172122 49.589 0.427002 50.71 1.17405 51.5953C1.92109 52.4806 2.95721 53.073 4.099 53.2677C5.24079 53.4623 6.41461 53.2467 7.41269 52.6589C8.41078 52.0711 9.16875 51.149 9.55244 50.056H15.1583C16.4245 54.4985 18.033 58.8362 19.9695 63.0301H11.4909C11.2774 63.0301 11.0661 63.0721 10.8689 63.1538C10.6717 63.2355 10.4925 63.3552 10.3416 63.5061L6.88868 66.9596C5.82486 66.4941 4.63065 66.4201 3.51751 66.7507C2.40437 67.0814 1.44413 67.7953 0.806828 68.7662C0.169523 69.737 -0.103726 70.9021 0.0354679 72.0551C0.174661 73.2081 0.717317 74.2746 1.56734 75.0659C2.41736 75.8571 3.51991 76.3219 4.67974 76.3781C5.83958 76.4342 6.98186 76.0781 7.90432 75.3727C8.82678 74.6673 9.46989 73.6581 9.71978 72.5239C9.96968 71.3898 9.81022 70.2038 9.26965 69.1759L12.164 66.2811H21.5513C23.541 70.1672 25.8063 73.9059 28.3297 77.4685C28.9119 78.2909 29.5086 79.1036 30.12 79.9068H20.5116C18.7512 79.9089 17.0634 80.6092 15.8186 81.8543C14.5737 83.0993 13.8735 84.7874 13.8714 86.5481V93.7554C12.7785 94.1391 11.8565 94.8973 11.2688 95.8956C10.6811 96.8938 10.4654 98.0679 10.66 99.21C10.8546 100.352 11.447 101.388 12.3321 102.136C13.2173 102.883 14.3383 103.293 15.4966 103.293C16.6549 103.293 17.7759 102.883 18.6611 102.136C19.5463 101.388 20.1386 100.352 20.3332 99.21C20.5278 98.0679 20.3122 96.8938 19.7244 95.8956C19.1367 94.8973 18.2148 94.1391 17.1219 93.7554V86.5477C17.123 85.6488 17.4805 84.7871 18.1159 84.1516C18.7514 83.516 19.6129 83.1584 20.5116 83.1573H32.7081C39.5913 91.4057 47.8646 98.3857 57.1537 103.781C57.4011 103.925 57.6818 104 57.9676 104C58.2534 104 58.5341 103.925 58.7815 103.781C68.0887 98.3762 76.376 91.3804 83.2671 83.112H95.4884C96.3871 83.1131 97.2486 83.4707 97.8841 84.1063C98.5196 84.7418 98.877 85.6035 98.8782 86.5024V93.7096C97.7852 94.0934 96.8633 94.8515 96.2756 95.8498C95.6878 96.8481 95.4722 98.0222 95.6668 99.1642C95.8614 100.306 96.4537 101.343 97.3389 102.09C98.2241 102.837 99.3451 103.247 100.503 103.247C101.662 103.247 102.783 102.837 103.668 102.09C104.553 101.343 105.145 100.306 105.34 99.1642C105.535 98.0222 105.319 96.8481 104.731 95.8498C104.143 94.8515 103.222 94.0934 102.129 93.7096V86.5026C102.126 84.7419 101.426 83.0539 100.181 81.8088C98.9365 80.5638 97.2488 79.8634 95.4884 79.8613H85.8507C86.5059 78.9979 87.1454 78.1237 87.7692 77.2389C90.2375 73.7315 92.4564 70.055 94.4094 66.2365H103.836L106.73 69.1311C106.19 70.1579 106.031 71.3427 106.281 72.4755C106.531 73.6084 107.174 74.6163 108.095 75.3208C109.017 76.0253 110.158 76.381 111.316 76.3249C112.475 76.2688 113.576 75.8045 114.425 75.0142C115.274 74.2239 115.817 73.1586 115.956 72.0069C116.095 70.8551 115.822 69.6913 115.186 68.7214C114.549 67.7515 113.59 67.0381 112.479 66.7075C111.367 66.3769 110.174 66.4504 109.111 66.915L105.658 63.4615C105.507 63.3106 105.328 63.1909 105.131 63.1092C104.934 63.0275 104.722 62.9855 104.509 62.9855H95.9903C97.9245 58.7911 99.5306 54.453 100.794 50.0103L106.447 50.0098ZM111.071 46.7286C111.399 46.7286 111.719 46.8257 111.991 47.0077C112.264 47.1897 112.476 47.4483 112.601 47.751C112.727 48.0536 112.759 48.3866 112.695 48.7079C112.632 49.0291 112.474 49.3242 112.242 49.5558C112.011 49.7875 111.716 49.9452 111.394 50.0091C111.073 50.073 110.74 50.0402 110.438 49.9148C110.135 49.7895 109.876 49.5772 109.695 49.3049C109.513 49.0325 109.415 48.7123 109.415 48.3848C109.416 47.9457 109.591 47.5247 109.901 47.2142C110.211 46.9037 110.632 46.7291 111.071 46.7286ZM111.071 20.1841C111.399 20.1841 111.719 20.2812 111.991 20.4632C112.264 20.6452 112.476 20.9039 112.601 21.2065C112.727 21.5091 112.759 21.8421 112.695 22.1634C112.632 22.4846 112.474 22.7797 112.242 23.0113C112.011 23.243 111.716 23.4007 111.394 23.4646C111.073 23.5285 110.74 23.4957 110.438 23.3704C110.135 23.245 109.876 23.0327 109.695 22.7604C109.513 22.488 109.415 22.1678 109.415 21.8403C109.416 21.4011 109.59 20.98 109.901 20.6694C110.211 20.3589 110.632 20.1841 111.071 20.1836V20.1841ZM104.509 3.251C104.837 3.251 105.157 3.34813 105.429 3.53011C105.701 3.71209 105.914 3.97075 106.039 4.27337C106.164 4.576 106.197 4.90899 106.133 5.23026C106.069 5.55152 105.912 5.84662 105.68 6.07824C105.448 6.30985 105.153 6.46759 104.832 6.53149C104.511 6.59539 104.178 6.5626 103.875 6.43725C103.573 6.3119 103.314 6.09962 103.132 5.82727C102.95 5.55491 102.853 5.23471 102.853 4.90716C102.854 4.46807 103.028 4.0471 103.339 3.73662C103.649 3.42614 104.07 3.25149 104.509 3.251ZM11.4909 6.60836C11.1633 6.60836 10.8432 6.51121 10.5708 6.32919C10.2985 6.14716 10.0863 5.88845 9.96096 5.58578C9.83565 5.2831 9.80292 4.95005 9.86688 4.62876C9.93085 4.30748 10.0887 4.01238 10.3203 3.7808C10.552 3.54922 10.8471 3.39156 11.1684 3.32776C11.4897 3.26396 11.8226 3.29689 12.1252 3.42238C12.4278 3.54788 12.6863 3.7603 12.8681 4.03277C13.05 4.30525 13.1469 4.62554 13.1468 4.95314C13.146 5.39206 12.9713 5.81279 12.6609 6.12307C12.3505 6.43335 11.9297 6.60787 11.4909 6.60836ZM3.27183 21.8849C3.27188 21.5573 3.36904 21.2371 3.55101 20.9648C3.73299 20.6925 3.99162 20.4802 4.2942 20.3549C4.59678 20.2296 4.92971 20.1969 5.25091 20.2608C5.5721 20.3247 5.86713 20.4825 6.09868 20.7141C6.33024 20.9457 6.48793 21.2408 6.5518 21.5621C6.61567 21.8833 6.58287 22.2163 6.45753 22.5189C6.33219 22.8215 6.11995 23.0802 5.84765 23.2621C5.57535 23.4441 5.25521 23.5412 4.92772 23.5412C4.4888 23.5406 4.06808 23.3658 3.75782 23.0553C3.44757 22.7448 3.27313 22.3238 3.27276 21.8849H3.27183ZM4.92772 50.0855C4.6002 50.0855 4.28005 49.9884 4.00773 49.8064C3.73542 49.6244 3.52318 49.3657 3.39786 49.0631C3.27254 48.7604 3.23976 48.4274 3.30367 48.1062C3.36758 47.7849 3.52531 47.4898 3.75691 47.2582C3.98852 47.0266 4.28359 46.8689 4.60481 46.805C4.92604 46.7411 5.25899 46.7739 5.56156 46.8993C5.86413 47.0247 6.12272 47.237 6.30465 47.5094C6.48657 47.7818 6.58365 48.102 6.5836 48.4296C6.58311 48.8685 6.40861 49.2893 6.09837 49.5997C5.78814 49.9101 5.36748 50.0848 4.92865 50.0855H4.92772ZM4.92772 73.1117C4.60021 73.1117 4.28007 73.0146 4.00776 72.8326C3.73545 72.6506 3.52321 72.392 3.39788 72.0893C3.27255 71.7867 3.23976 71.4537 3.30365 71.1324C3.36754 70.8112 3.52525 70.5161 3.75683 70.2845C3.98841 70.0528 4.28346 69.8951 4.60467 69.8312C4.92588 69.7673 5.25882 69.8001 5.5614 69.9255C5.86397 70.0508 6.12258 70.2631 6.30453 70.5354C6.48648 70.8078 6.5836 71.128 6.5836 71.4555C6.58311 71.8945 6.40862 72.3153 6.09839 72.6257C5.78816 72.9362 5.3675 73.111 4.92865 73.1117H4.92772ZM15.4962 100.036C15.1687 100.036 14.8485 99.9387 14.5762 99.7568C14.3039 99.5748 14.0917 99.3161 13.9663 99.0135C13.841 98.7109 13.8082 98.3779 13.8721 98.0566C13.936 97.7353 14.0937 97.4402 14.3253 97.2086C14.5568 96.977 14.8519 96.8193 15.1731 96.7554C15.4943 96.6915 15.8273 96.7243 16.1298 96.8496C16.4324 96.975 16.691 97.1872 16.873 97.4596C17.0549 97.7319 17.152 98.0521 17.152 98.3797C17.1515 98.8188 16.9769 99.2398 16.6665 99.5502C16.3561 99.8607 15.9352 100.035 15.4962 100.036ZM100.504 99.9906C100.176 99.9906 99.8562 99.8934 99.5839 99.7115C99.3116 99.5295 99.0993 99.2708 98.974 98.9682C98.8487 98.6656 98.8159 98.3326 98.8798 98.0113C98.9437 97.6901 99.1014 97.395 99.333 97.1633C99.5645 96.9317 99.8596 96.774 100.181 96.7101C100.502 96.6462 100.835 96.679 101.138 96.8043C101.44 96.9297 101.699 97.142 101.881 97.4143C102.063 97.6867 102.16 98.0069 102.16 98.3344C102.159 98.7735 101.985 99.1945 101.674 99.505C101.364 99.8154 100.943 99.9901 100.504 99.9906ZM112.727 71.4103C112.727 71.7378 112.63 72.0581 112.448 72.3304C112.266 72.6028 112.008 72.8151 111.705 72.9405C111.403 73.0659 111.07 73.0987 110.748 73.0349C110.427 72.971 110.132 72.8133 109.901 72.5817C109.669 72.3501 109.511 72.0549 109.447 71.7337C109.383 71.4124 109.416 71.0794 109.541 70.7768C109.667 70.4741 109.879 70.2155 110.151 70.0335C110.424 69.8515 110.744 69.7543 111.071 69.7543C111.51 69.7548 111.931 69.9294 112.242 70.2399C112.552 70.5503 112.727 70.9712 112.727 71.4103ZM57.9675 100.491C47.1685 94.1176 37.8643 85.4988 30.6845 75.2175C23.5047 64.9363 18.6168 53.2324 16.3517 40.8979L30.2266 16.8623C48.3351 10.7713 67.9318 10.7285 86.0667 16.7404L99.687 40.3355C95.2304 65.5401 80.0728 87.3894 57.9675 100.491Z" fill="#B494B3"/>
</svg>
