<svg width="89" height="98" viewBox="0 0 89 98" fill="none" xmlns="http://www.w3.org/2000/svg">
<path d="M44.9196 44.415C43.1297 44.415 41.6787 45.866 41.6787 47.656C41.6785 48.9501 42.439 50.0638 43.5357 50.5834V54.5231C43.5357 55.2872 44.1551 55.9068 44.9194 55.9068C45.6838 55.9068 46.3032 55.2874 46.3032 54.5231V50.5834C47.4 50.0638 48.1605 48.9501 48.1605 47.656C48.1605 45.866 46.7096 44.415 44.9196 44.415Z" fill="#B494B3"/>
<path d="M79.4542 21.2808C73.4975 18.9236 68.7695 14.5823 66.1412 9.05675C65.4264 7.55412 63.8814 6.58301 62.2049 6.58301H27.5299C25.8535 6.58301 24.3085 7.55393 23.5938 9.05675C20.9656 14.5823 16.2375 18.9236 10.2807 21.2808C8.60982 21.9418 7.53027 23.5346 7.53027 25.3384V33.772C7.53027 44.8274 10.7541 55.7484 16.8533 65.3547C23.0117 75.0551 31.9356 83.1618 42.6595 88.7983L42.8342 88.8902C43.4709 89.2248 44.1691 89.3921 44.8676 89.3921C45.5656 89.3921 46.264 89.2248 46.9004 88.8904L47.0756 88.7983C57.7997 83.1616 66.7234 75.0551 72.882 65.3547C78.981 55.7482 82.2048 44.8272 82.2048 33.772V25.3384C82.2048 23.5344 81.1249 21.9418 79.4542 21.2808ZM79.4375 33.7722C79.4375 44.3012 76.3628 54.7093 70.5458 63.8717C64.6459 73.1643 56.0848 80.9368 45.7885 86.3488L45.6133 86.4407C45.1463 86.6864 44.5888 86.6863 44.1217 86.4407L43.947 86.349C33.6503 80.937 25.0892 73.1645 19.1892 63.8717C13.3722 54.7095 10.2974 44.3012 10.2974 33.772V25.3384C10.2974 24.6774 10.6905 24.0946 11.2987 23.854C17.9089 21.2384 23.1627 16.4054 26.0926 10.2455C26.351 9.70182 26.9152 9.35052 27.5297 9.35052H62.205C62.8195 9.35052 63.3835 9.70182 63.6422 10.2455C66.5722 16.4054 71.8262 21.2384 78.4362 23.8542C79.0444 24.0948 79.4375 24.6776 79.4375 25.3386V33.7722Z" fill="#B494B3"/>
<path d="M86.3908 47.0433C85.6455 46.8747 84.9045 47.3424 84.7363 48.0879C80.5221 66.7311 67.6876 82.8992 49.5231 92.4465L45.302 94.6652C45.0295 94.8084 44.704 94.8084 44.4315 94.6652L40.2104 92.4465C22.0174 82.8842 9.17641 66.6882 4.97994 48.0114C4.81265 47.2658 4.07206 46.797 3.32673 46.9647C2.58121 47.1321 2.11255 47.8724 2.28004 48.6179C6.65443 68.0879 20.0102 84.9556 38.9229 94.8959L43.144 97.1146C43.6835 97.398 44.275 97.5398 44.8667 97.5398C45.4583 97.5398 46.0502 97.398 46.5895 97.1145L50.8106 94.8957C69.6935 84.9709 83.0426 68.1325 87.4356 48.6978C87.6038 47.9525 87.1361 47.2117 86.3908 47.0433Z" fill="#B494B3"/>
<path d="M85.7157 16.1443C78.3271 15.3648 72.5175 10.1786 71.5876 3.53269C71.3307 1.69623 69.7525 0.311523 67.9166 0.311523H21.8134C19.9777 0.311523 18.3995 1.69623 18.1426 3.53269C17.2125 10.1788 11.4029 15.3648 4.01449 16.1443C2.14233 16.3418 0.730469 17.9234 0.730469 19.8231V34.6811C0.730469 36.8402 0.842316 39.0231 1.06297 41.1692C1.13627 41.8813 1.7371 42.4115 2.4378 42.4115C2.48509 42.4115 2.53294 42.4091 2.58098 42.4041C3.34113 42.3261 3.8941 41.6465 3.81586 40.8863C3.60489 38.8337 3.49779 36.7461 3.49779 34.6811V19.8231C3.49779 19.3512 3.85232 18.9439 4.30484 18.8962C12.9594 17.9832 19.7766 11.8231 20.8833 3.91609C20.9513 3.43091 21.3423 3.07884 21.8134 3.07884H67.9164C68.3875 3.07884 68.7789 3.43091 68.8467 3.91609C69.953 11.8231 76.7704 17.983 85.425 18.8962C85.8775 18.9439 86.232 19.3512 86.232 19.8231V34.6811C86.232 36.7242 86.1272 38.7903 85.9206 40.8223C85.8433 41.5825 86.397 42.2615 87.1572 42.3388C87.917 42.4167 88.5964 41.8624 88.6739 41.1022C88.89 38.9777 88.9993 36.8175 88.9993 34.6811V19.8231C88.9995 17.9234 87.5879 16.3418 85.7157 16.1443Z" fill="#B494B3"/>
<path d="M60.7157 34.8486H58.4406V28.2437C58.4406 20.7886 52.3756 14.7236 44.9204 14.7236C37.4653 14.7236 31.4001 20.7886 31.4001 28.2437V34.8486H29.1252C26.6987 34.8486 24.7246 36.8227 24.7246 39.2492V59.0606C24.7246 61.4871 26.6987 63.4612 29.1252 63.4612H60.7157C63.1422 63.4612 65.1163 61.4871 65.1163 59.0606V39.2492C65.1163 36.8227 63.1422 34.8486 60.7157 34.8486ZM34.1676 28.2439C34.1676 22.3148 38.9913 17.4911 44.9206 17.4911C50.8498 17.4911 55.6735 22.3148 55.6735 28.2439V34.8488H34.1676V28.2439ZM62.349 59.0606C62.349 59.9611 61.6162 60.6939 60.7157 60.6939H29.1252C28.2245 60.6939 27.4919 59.9611 27.4919 59.0606V39.2492C27.4919 38.3487 28.2247 37.6159 29.1252 37.6159H60.7157C61.6162 37.6159 62.349 38.3485 62.349 39.2492V59.0606Z" fill="#B494B3"/>
</svg>
