<svg width="125" height="137" viewBox="0 0 125 137" fill="none" xmlns="http://www.w3.org/2000/svg">
<path d="M62.1606 62.041C59.6427 62.041 57.6016 64.0821 57.6016 66.6C57.6013 68.4205 58.6711 69.9871 60.2138 70.718V76.26C60.2138 77.3349 61.0851 78.2065 62.1603 78.2065C63.2355 78.2065 64.1068 77.3352 64.1068 76.26V70.718C65.6497 69.9871 66.7195 68.4205 66.7195 66.6C66.7195 64.0821 64.6785 62.041 62.1606 62.041Z" fill="#B494B3"/>
<path d="M110.74 29.4976C102.36 26.1818 95.7096 20.0748 92.0124 12.3021C91.0069 10.1883 88.8336 8.82227 86.4752 8.82227H37.6979C35.3397 8.82227 33.1664 10.1881 32.161 12.3021C28.464 20.0748 21.8129 26.1818 13.4335 29.4976C11.083 30.4275 9.56445 32.6681 9.56445 35.2055V47.069C9.56445 62.6206 14.0994 77.9832 22.6791 91.4964C31.3422 105.142 43.8954 116.546 58.9807 124.474L59.2264 124.604C60.1221 125.074 61.1043 125.31 62.0868 125.31C63.0687 125.31 64.0512 125.074 64.9463 124.604L65.1929 124.474C80.2784 116.545 92.8314 105.142 101.495 91.4964C110.074 77.9829 114.609 62.6204 114.609 47.069V35.2055C114.609 32.6678 113.09 30.4275 110.74 29.4976ZM110.716 47.0693C110.716 61.8804 106.391 76.5215 98.2083 89.4102C89.909 102.482 77.866 113.416 63.3823 121.029L63.1358 121.158C62.4789 121.504 61.6946 121.503 61.0375 121.158L60.7918 121.029C46.3075 113.416 34.2645 102.482 25.965 89.4102C17.7822 76.5218 13.457 61.8804 13.457 47.069V35.2055C13.457 34.2757 14.0099 33.4558 14.8655 33.1174C24.1641 29.438 31.5546 22.6395 35.676 13.9743C36.0396 13.2095 36.8332 12.7153 37.6976 12.7153H86.4754C87.3398 12.7153 88.1332 13.2095 88.497 13.9743C92.6187 22.6395 100.009 29.438 109.308 33.1177C110.163 33.4561 110.716 34.2759 110.716 35.2058V47.0693Z" fill="#B494B3"/>
<path d="M120.498 65.7375C119.45 65.5003 118.407 66.1582 118.171 67.207C112.243 93.4323 94.1884 116.176 68.6364 129.606L62.6985 132.727C62.3152 132.929 61.8573 132.929 61.474 132.727L55.5361 129.606C29.9441 116.155 11.8807 93.372 5.97754 67.0993C5.74221 66.0506 4.70042 65.3911 3.65197 65.6269C2.60324 65.8625 1.94398 66.9038 2.17958 67.9525C8.33303 95.3409 27.1206 119.069 53.725 133.052L59.6629 136.173C60.4218 136.571 61.2539 136.771 62.0863 136.771C62.9184 136.771 63.751 136.571 64.5096 136.173L70.4475 133.052C97.01 119.09 115.788 95.4037 121.968 68.065C122.205 67.0165 121.547 65.9745 120.498 65.7375Z" fill="#B494B3"/>
<path d="M119.549 22.2719C109.155 21.1754 100.983 13.88 99.6747 4.53121C99.3133 1.94786 97.0932 0 94.5107 0H29.6574C27.0751 0 24.855 1.94786 24.4936 4.53121C23.1852 13.8803 15.0129 21.1754 4.61963 22.2719C1.98606 22.5498 0 24.7746 0 27.4469V48.3477C0 51.3849 0.157336 54.4555 0.467733 57.4745C0.570843 58.4762 1.41602 59.2221 2.40171 59.2221C2.46822 59.2221 2.53553 59.2186 2.60312 59.2116C3.67241 59.1018 4.45028 58.1458 4.34022 57.0765C4.04345 54.1892 3.89279 51.2524 3.89279 48.3477V27.4469C3.89279 26.7831 4.39151 26.2101 5.02806 26.1431C17.2025 24.8588 26.7922 16.1933 28.349 5.07054C28.4446 4.38804 28.9946 3.89279 29.6574 3.89279H94.5104C95.1731 3.89279 95.7237 4.38804 95.819 5.07054C97.3753 16.1933 106.965 24.8585 119.14 26.1431C119.776 26.2101 120.275 26.7831 120.275 27.4469V48.3477C120.275 51.2217 120.128 54.128 119.837 56.9865C119.728 58.0558 120.507 59.011 121.576 59.1197C122.645 59.2293 123.601 58.4495 123.71 57.3802C124.014 54.3917 124.168 51.3529 124.168 48.3477V27.4469C124.168 24.7746 122.182 22.5498 119.549 22.2719Z" fill="#B494B3"/>
<path d="M84.3816 48.5832H81.1812V39.2921C81.1812 28.8051 72.6496 20.2734 62.1623 20.2734C51.6753 20.2734 43.1434 28.8051 43.1434 39.2921V48.5832H39.9432C36.5299 48.5832 33.7529 51.3602 33.7529 54.7735V82.6422C33.7529 86.0555 36.5299 88.8325 39.9432 88.8325H84.3816C87.7949 88.8325 90.5719 86.0555 90.5719 82.6422V54.7735C90.5719 51.3602 87.7949 48.5832 84.3816 48.5832ZM47.0364 39.2924C47.0364 30.952 53.8219 24.1665 62.1626 24.1665C70.5032 24.1665 77.2887 30.952 77.2887 39.2924V48.5834H47.0364V39.2924ZM86.6792 82.6422C86.6792 83.9089 85.6483 84.9397 84.3816 84.9397H39.9432C38.6763 84.9397 37.6457 83.9089 37.6457 82.6422V54.7735C37.6457 53.5068 38.6765 52.476 39.9432 52.476H84.3816C85.6483 52.476 86.6792 53.5065 86.6792 54.7735V82.6422Z" fill="#B494B3"/>
</svg>
