<svg width="97" height="97" viewBox="0 0 97 97" fill="none" xmlns="http://www.w3.org/2000/svg">
<path d="M39.7066 88.585C29.5514 83.146 28.7495 68.4062 28.6993 65.0916C28.6937 64.7237 28.9908 64.4238 29.3587 64.4238H67.4535C67.8214 64.4238 68.1185 64.7239 68.1129 65.0918C68.0625 68.3969 67.2634 83.0614 57.1904 88.538" stroke="#B494B3" stroke-width="2.80121" stroke-miterlimit="10" stroke-linecap="round" stroke-linejoin="round"/>
<path d="M29.3994 70.6279H67.3715" stroke="#B494B3" stroke-width="2.80121" stroke-miterlimit="10" stroke-linecap="round" stroke-linejoin="round"/>
<path d="M20.7061 88.6504H76.3878" stroke="#B494B3" stroke-width="2.80121" stroke-miterlimit="10" stroke-linecap="round" stroke-linejoin="round"/>
<path d="M12.1777 94.999H84.9159" stroke="#B494B3" stroke-width="2.80121" stroke-miterlimit="10" stroke-linecap="round" stroke-linejoin="round"/>
<path d="M10.3104 9.28223H4.70801V81.6902H10.3104V9.28223Z" stroke="#B494B3" stroke-width="2.80121" stroke-miterlimit="10" stroke-linecap="round" stroke-linejoin="round"/>
<path d="M86.5039 64.4247V9.28223H92.1063V81.6902H86.5039V70.8398" stroke="#B494B3" stroke-width="2.80121" stroke-miterlimit="10" stroke-linecap="round" stroke-linejoin="round"/>
<path d="M19.5322 94.9986H2.74699C2.33446 94.9986 2 94.6641 2 94.2516V82.4364C2 82.0239 2.33446 81.6895 2.74699 81.6895H19.5322C19.9448 81.6895 20.2792 82.0239 20.2792 82.4364V94.2516C20.2792 94.6641 19.9448 94.9986 19.5322 94.9986Z" stroke="#B494B3" stroke-width="2.80121" stroke-miterlimit="10" stroke-linecap="round" stroke-linejoin="round"/>
<path d="M94.0674 94.9986H77.2821C76.8696 94.9986 76.5352 94.6641 76.5352 94.2516V82.4364C76.5352 82.0239 76.8696 81.6895 77.2821 81.6895H94.0674C94.4799 81.6895 94.8144 82.0239 94.8144 82.4364V94.2516C94.8144 94.6641 94.4799 94.9986 94.0674 94.9986Z" stroke="#B494B3" stroke-width="2.80121" stroke-miterlimit="10" stroke-linecap="round" stroke-linejoin="round"/>
<path d="M21.0794 2.18555H94.0666C94.4791 2.18555 94.8135 2.52001 94.8135 2.93254V8.53496C94.8135 8.94749 94.4791 9.28195 94.0666 9.28195H2.74699C2.33446 9.28195 2 8.94749 2 8.53496V2.93254C2 2.52001 2.33446 2.18555 2.74699 2.18555H14.5433" stroke="#B494B3" stroke-width="2.80121" stroke-miterlimit="10" stroke-linecap="round" stroke-linejoin="round"/>
<path d="M62.9724 64.4244H33.8398C33.4272 64.4244 33.0928 64.0899 33.0928 63.6774V47.6171C33.0928 47.2046 33.4272 46.8701 33.8398 46.8701H62.9724C63.3849 46.8701 63.7194 47.2046 63.7194 47.6171V63.6774C63.7194 64.0899 63.3849 64.4244 62.9724 64.4244Z" stroke="#B494B3" stroke-width="2.80121" stroke-miterlimit="10" stroke-linecap="round" stroke-linejoin="round"/>
<path d="M38.6963 52.4727V58.8221" stroke="#B494B3" stroke-width="2.80121" stroke-miterlimit="10" stroke-linecap="round" stroke-linejoin="round"/>
<path d="M45.1699 52.4727V58.8221" stroke="#B494B3" stroke-width="2.80121" stroke-miterlimit="10" stroke-linecap="round" stroke-linejoin="round"/>
<path d="M51.6436 52.4727V58.8221" stroke="#B494B3" stroke-width="2.80121" stroke-miterlimit="10" stroke-linecap="round" stroke-linejoin="round"/>
<path d="M58.1182 52.4727V58.8221" stroke="#B494B3" stroke-width="2.80121" stroke-miterlimit="10" stroke-linecap="round" stroke-linejoin="round"/>
<path d="M62.9724 36.941H33.8398C33.4272 36.941 33.0928 36.6065 33.0928 36.194V20.1337C33.0928 19.7212 33.4272 19.3867 33.8398 19.3867H62.9724C63.3849 19.3867 63.7194 19.7212 63.7194 20.1337V36.194C63.7194 36.6067 63.3849 36.941 62.9724 36.941Z" stroke="#B494B3" stroke-width="2.80121" stroke-miterlimit="10" stroke-linecap="round" stroke-linejoin="round"/>
<path d="M38.6963 24.9883V31.3377" stroke="#B494B3" stroke-width="2.80121" stroke-miterlimit="10" stroke-linecap="round" stroke-linejoin="round"/>
<path d="M45.1699 24.9883V31.3377" stroke="#B494B3" stroke-width="2.80121" stroke-miterlimit="10" stroke-linecap="round" stroke-linejoin="round"/>
<path d="M51.6436 24.9883V31.3377" stroke="#B494B3" stroke-width="2.80121" stroke-miterlimit="10" stroke-linecap="round" stroke-linejoin="round"/>
<path d="M58.1182 24.9883V31.3377" stroke="#B494B3" stroke-width="2.80121" stroke-miterlimit="10" stroke-linecap="round" stroke-linejoin="round"/>
<path d="M36.8281 9.77051V18.8175" stroke="#B494B3" stroke-width="2.80121" stroke-miterlimit="10" stroke-linecap="round" stroke-linejoin="round"/>
<path d="M59.9844 9.77051V18.8175" stroke="#B494B3" stroke-width="2.80121" stroke-miterlimit="10" stroke-linecap="round" stroke-linejoin="round"/>
<path d="M66.1481 2.18555H30.666V9.28195H66.1481V2.18555Z" stroke="#B494B3" stroke-width="2.80121" stroke-miterlimit="10" stroke-linecap="round" stroke-linejoin="round"/>
</svg>
