<svg width="144" height="144" viewBox="0 0 144 144" fill="none" xmlns="http://www.w3.org/2000/svg">
<g clip-path="url(#clip0_167_10344)">
<path d="M114.039 12.585H132.444" stroke="#B494B3" stroke-width="4.21875" stroke-miterlimit="10" stroke-linecap="round" stroke-linejoin="round"/>
<path d="M103.588 12.585H105.831" stroke="#B494B3" stroke-width="4.21875" stroke-miterlimit="10" stroke-linecap="round" stroke-linejoin="round"/>
<path d="M103.588 22.4941H132.445" stroke="#B494B3" stroke-width="4.21875" stroke-miterlimit="10" stroke-linecap="round" stroke-linejoin="round"/>
<mask id="mask0_167_10344" style="mask-type:luminance" maskUnits="userSpaceOnUse" x="-1" y="-1" width="145" height="145">
<path d="M143.858 143.858V0.139664H0.139648V143.858H143.858Z" fill="white" stroke="white" stroke-width="0.28125"/>
</mask>
<g mask="url(#mask0_167_10344)">
<path d="M88.7796 50.813V59.4438C88.7796 63.0086 85.8897 65.8984 82.3246 65.8984H77.0039" stroke="#B494B3" stroke-width="4.25616" stroke-miterlimit="10" stroke-linecap="round" stroke-linejoin="round"/>
<path d="M106.26 132.733H6.64411C4.13902 132.733 2.1084 134.763 2.1084 137.268C2.1084 139.773 4.13902 141.804 6.64411 141.804H106.26C108.765 141.804 110.796 139.773 110.796 137.268C110.796 134.763 108.765 132.733 106.26 132.733Z" stroke="#B494B3" stroke-width="4.25616" stroke-miterlimit="10" stroke-linecap="round" stroke-linejoin="round"/>
<path d="M62.1117 132.731C62.1117 129.014 63.5045 125.441 65.9913 122.678C66.0099 122.658 66.0284 122.637 66.047 122.616C68.0807 120.341 69.3174 117.338 69.3174 114.046C69.3174 109.249 66.6913 105.065 62.7983 102.853C62.0597 102.434 61.1425 102.961 61.1425 103.811V113.382C61.1425 114.986 59.842 116.287 58.2375 116.287H54.6668C53.0625 116.287 51.7617 114.986 51.7617 113.382V103.811C51.7617 102.961 50.8443 102.434 50.1057 102.853C46.2129 105.065 43.5869 109.249 43.5869 114.046C43.5869 117.338 44.8236 120.341 46.8573 122.616C46.8759 122.637 46.8944 122.658 46.913 122.678C49.3998 125.441 50.7925 129.014 50.7925 132.731" stroke="#B494B3" stroke-width="4.25616" stroke-miterlimit="10" stroke-linecap="round" stroke-linejoin="round"/>
<path d="M12.9824 124.5L13.429 132.731" stroke="#B494B3" stroke-width="4.25616" stroke-miterlimit="10" stroke-linecap="round" stroke-linejoin="round"/>
<path d="M99.4754 132.731L101.566 94.2165C101.767 90.5079 98.8145 87.3906 95.1003 87.3906H17.8052C14.0913 87.3906 11.1384 90.5079 11.3398 94.2165L12.4519 114.71" stroke="#B494B3" stroke-width="4.25616" stroke-miterlimit="10" stroke-linecap="round" stroke-linejoin="round"/>
<path d="M109.109 133.739V124.903C109.109 116.393 106.152 108.469 101.132 102.21" stroke="#B494B3" stroke-width="4.25616" stroke-miterlimit="10" stroke-linecap="round" stroke-linejoin="round"/>
<path d="M11.7727 102.211C6.75296 108.47 3.7959 116.394 3.7959 124.904V133.74" stroke="#B494B3" stroke-width="4.25616" stroke-miterlimit="10" stroke-linecap="round" stroke-linejoin="round"/>
<path d="M77.9263 19.4981H77.6897C76.3805 19.4981 75.3191 18.437 75.3191 17.1278C75.3191 13.2513 72.177 10.1089 68.3005 10.1089H45.9611C36.0192 10.1089 27.96 18.1681 27.96 28.11V40.006C27.96 41.7535 29.0656 43.3096 30.7159 43.8842L35.1498 45.428C36.6998 45.9677 38.3184 44.8154 38.3159 43.1743L38.306 34.7858C38.2892 30.7062 41.5424 27.385 45.5727 27.3675L45.6604 27.3672C46.8943 27.3619 48.1143 27.5534 49.2798 27.9281C51.3448 28.5915 53.4845 28.9937 55.6535 28.9844H57.2513C59.4203 28.9937 61.5601 28.5915 63.625 27.9281C64.7905 27.5534 66.0106 27.3619 67.2444 27.3672L67.3321 27.3675C71.3625 27.385 74.6157 30.7062 74.5988 34.7858L74.5906 43.1749C74.5884 44.816 76.207 45.9677 77.7564 45.428L82.1892 43.8842C83.8393 43.3096 84.9449 41.7537 84.9449 40.0063V26.517C84.9449 22.6406 81.8025 19.4981 77.9263 19.4981Z" stroke="#B494B3" stroke-width="4.25616" stroke-miterlimit="10" stroke-linecap="round" stroke-linejoin="round"/>
<path d="M33.4297 56.1167H33.4691C33.6243 62.235 36.1893 68.114 40.7953 72.0942C44.5039 75.2988 49.7093 78.0874 56.5704 78.1357C63.4306 78.0289 68.6129 75.1958 72.2942 71.9598C76.7765 68.02 79.2762 62.2727 79.4723 56.2835" stroke="#B494B3" stroke-width="4.25616" stroke-miterlimit="10" stroke-linecap="round" stroke-linejoin="round"/>
<path d="M27.9597 39.0825C25.7781 39.4841 24.124 41.3921 24.124 43.6899V51.7016C24.124 54.2914 26.2233 56.3906 28.813 56.3906H33.4311V44.8301" stroke="#B494B3" stroke-width="4.25616" stroke-miterlimit="10" stroke-linecap="round" stroke-linejoin="round"/>
<path d="M79.4736 44.8307V56.3906H84.0915C86.6812 56.3906 88.7805 54.2914 88.7805 51.7019V43.6902C88.7805 41.3924 87.1264 39.4841 84.9448 39.0828" stroke="#B494B3" stroke-width="4.25616" stroke-miterlimit="10" stroke-linecap="round" stroke-linejoin="round"/>
<path d="M72.3707 69.21H67.077C65.0574 69.21 63.4199 67.5728 63.4199 65.5531C63.4199 63.5332 65.0574 61.8961 67.077 61.8961H72.3707C74.3904 61.8961 76.0275 63.5332 76.0275 65.5531C76.0275 67.5728 74.3904 69.21 72.3707 69.21Z" stroke="#B494B3" stroke-width="4.25616" stroke-miterlimit="10" stroke-linecap="round" stroke-linejoin="round"/>
<path d="M71.4121 87.3906C69.474 86.3399 68.1943 84.2963 68.1943 81.9948V74.9239" stroke="#B494B3" stroke-width="4.25616" stroke-miterlimit="10" stroke-linecap="round" stroke-linejoin="round"/>
<path d="M44.7106 74.902V81.9948C44.7106 84.3357 43.3935 86.3537 41.4863 87.3906" stroke="#B494B3" stroke-width="4.25616" stroke-miterlimit="10" stroke-linecap="round" stroke-linejoin="round"/>
<path d="M141.89 12.4142V8.33157C141.89 4.94363 139.144 2.19723 135.755 2.19723H100.278C96.89 2.19723 94.1436 4.94363 94.1436 8.33157V26.0751C94.1436 29.463 96.89 32.2094 100.278 32.2094C102.257 32.2094 103.861 33.8134 103.861 35.792V46.7649C103.861 48.158 105.695 48.6659 106.412 47.4712L114.52 33.9495C115.168 32.8701 116.334 32.2094 117.593 32.2094H135.755C139.144 32.2094 141.89 29.463 141.89 26.0751V22.2759" stroke="#B494B3" stroke-width="4.25616" stroke-miterlimit="10" stroke-linecap="round" stroke-linejoin="round"/>
</g>
</g>
<defs>
<clipPath id="clip0_167_10344">
<rect width="144" height="144" fill="white"/>
</clipPath>
</defs>
</svg>
