<svg width="62" height="62" viewBox="0 0 62 62" fill="none" xmlns="http://www.w3.org/2000/svg">
<path d="M47.6918 32.7211C47.2963 36.552 45.5976 40.1314 42.8795 42.8616C40.1613 45.5918 36.5881 47.3074 32.7567 47.722C32.6795 47.721 32.603 47.7355 32.5315 47.7646C32.46 47.7937 32.3951 47.8368 32.3406 47.8913C32.286 47.9458 32.2429 48.0107 32.2138 48.0821C32.1847 48.1535 32.1702 48.23 32.1711 48.3071V60.8297C32.1711 61.1401 32.0477 61.4377 31.8281 61.6572C31.6085 61.8767 31.3106 62 31 62C30.6894 62 30.3915 61.8767 30.1719 61.6572C29.9523 61.4377 29.8289 61.1401 29.8289 60.8297V56.286C29.8177 56.1345 29.7525 55.9921 29.645 55.8847C29.5375 55.7772 29.3949 55.712 29.2433 55.7009C24.0347 55.2796 19.0942 53.2178 15.1328 49.812C11.1714 46.4062 8.3935 41.8323 7.19889 36.7484C7.15442 36.5978 7.14074 36.4397 7.15867 36.2837C7.1766 36.1277 7.22577 35.9769 7.30324 35.8402C7.38072 35.7036 7.48492 35.584 7.60963 35.4884C7.73435 35.3929 7.87704 35.3234 8.02919 35.2841C8.18134 35.2448 8.33985 35.2365 8.49527 35.2598C8.65069 35.283 8.79985 35.3372 8.93386 35.4192C9.06786 35.5013 9.18398 35.6094 9.27529 35.7372C9.3666 35.8651 9.43123 36.0099 9.46533 36.1632C10.5274 40.7266 13.0038 44.8385 16.5415 47.9128C20.0793 50.9871 24.4979 52.867 29.1676 53.2845C29.3191 53.3602 29.4638 53.2845 29.6084 53.1399C29.6849 53.0968 29.7468 53.0318 29.786 52.9533C29.8253 52.8748 29.8402 52.7863 29.8289 52.6993V48.3071C29.8298 48.23 29.8153 48.1535 29.7862 48.0821C29.7571 48.0107 29.714 47.9458 29.6594 47.8913C29.6049 47.8368 29.54 47.7937 29.4685 47.7646C29.397 47.7355 29.3205 47.721 29.2433 47.722C25.4301 47.2974 21.8718 45.5995 19.1442 42.903C16.4172 40.164 14.7147 36.5718 14.322 32.728C14.2997 32.5873 14.229 32.4588 14.1221 32.3646C14.0153 32.2704 13.8789 32.2163 13.7364 32.2116H1.20556C0.885822 32.2116 0.579185 32.0847 0.353099 31.8588C0.127014 31.6328 0 31.3264 0 31.0069C0 30.6874 0.127014 30.3809 0.353099 30.155C0.579185 29.9291 0.885822 29.8021 1.20556 29.8021H5.96578C6.10782 29.7962 6.24352 29.7417 6.35012 29.6477C6.45672 29.5537 6.52776 29.4259 6.55133 29.2858C6.86393 24.0884 8.79632 19.1191 12.0776 15.0746C15.3588 11.0301 19.8244 8.11318 24.8482 6.73285C25.1525 6.67514 25.4673 6.73594 25.7281 6.9028C25.9888 7.06965 26.1759 7.3299 26.2508 7.63017C26.3257 7.93044 26.2828 8.24797 26.1308 8.51763C25.9789 8.78729 25.7295 8.98865 25.4338 9.08039C20.9392 10.2916 16.9353 12.8751 13.9811 16.4704C11.027 20.0656 9.27 24.493 8.95556 29.1344C8.93613 29.2199 8.9369 29.3087 8.95781 29.3939C8.97872 29.479 9.01919 29.5581 9.07601 29.6249C9.13284 29.6918 9.20445 29.7444 9.28518 29.7788C9.36591 29.8131 9.45354 29.8282 9.54111 29.8228H13.7089C13.8513 29.8181 13.9877 29.7641 14.0946 29.6698C14.2014 29.5756 14.2721 29.4471 14.2944 29.3065C14.6845 25.4685 16.3826 21.881 19.104 19.145C21.8255 16.4091 25.4052 14.6908 29.2433 14.278C29.3205 14.279 29.397 14.2645 29.4685 14.2354C29.54 14.2063 29.6049 14.1632 29.6594 14.1087C29.714 14.0542 29.7571 13.9893 29.7862 13.9179C29.8153 13.8465 29.8298 13.77 29.8289 13.6929V1.17033C29.8289 0.85994 29.9523 0.562262 30.1719 0.342782C30.3915 0.123302 30.6894 0 31 0C31.3106 0 31.6085 0.123302 31.8281 0.342782C32.0477 0.562262 32.1711 0.85994 32.1711 1.17033V15.3726C32.179 15.5384 32.1521 15.7039 32.0922 15.8586C32.0323 16.0134 31.9408 16.1539 31.8234 16.2712C31.706 16.3885 31.5654 16.48 31.4105 16.5399C31.2557 16.5997 31.0901 16.6266 30.9242 16.6187C18.1867 16.6187 11.8213 32.2048 20.8251 41.2094C29.8289 50.2141 45.198 43.7704 45.4184 31C45.4166 30.8458 45.4456 30.6928 45.5038 30.55C45.562 30.4071 45.6482 30.2774 45.7573 30.1683C45.8665 30.0593 45.9963 29.9732 46.1392 29.915C46.2821 29.8568 46.4352 29.8278 46.5896 29.8297H60.7944C61.1142 29.8297 61.4208 29.9566 61.6469 30.1825C61.873 30.4085 62 30.7149 62 31.0344C62 31.3539 61.873 31.6604 61.6469 31.8863C61.4208 32.1122 61.1142 32.2392 60.7944 32.2392H56.11C55.9646 32.2333 55.8226 32.2838 55.7136 32.3799C55.6045 32.4761 55.5367 32.6106 55.5244 32.7555C55.1443 37.9853 53.1204 42.9614 49.7417 46.9733C46.3631 50.9851 41.8024 53.8277 36.7109 55.095C35.1747 55.4599 34.6442 53.1193 36.1942 52.7544C40.7412 51.6246 44.8189 49.0977 47.853 45.5297C50.887 41.9617 52.7244 37.5324 53.1064 32.8656C53.1259 32.7801 53.1251 32.6913 53.1042 32.6061C53.0833 32.521 53.0428 32.4419 52.986 32.3751C52.9292 32.3082 52.8576 32.2556 52.7768 32.2212C52.6961 32.1869 52.6085 32.1718 52.5209 32.1772H48.2773C48.1349 32.1819 47.9985 32.2359 47.8917 32.3302C47.7848 32.4244 47.7141 32.5529 47.6918 32.6935V32.7211ZM57.1778 13.2523L48.7113 21.6649C48.5045 21.8893 48.2172 22.0229 47.9122 22.0366H42.2702C42.1162 22.0501 41.9675 22.0997 41.8362 22.1812L31.806 32.2805C31.5805 32.4911 31.282 32.606 30.9734 32.6011C30.6647 32.5961 30.3701 32.4718 30.1514 32.2541C29.9327 32.0364 29.807 31.7425 29.8008 31.4341C29.7946 31.1257 29.9084 30.827 30.1182 30.6007L40.1484 20.4946C40.2159 20.4608 40.2724 20.4086 40.3115 20.344C40.3505 20.2794 40.3704 20.2051 40.3689 20.1297V14.4777C40.3675 14.3149 40.3991 14.1534 40.4618 14.0032C40.5246 13.8529 40.6172 13.7169 40.734 13.6034L49.1522 5.19765C49.3148 5.02203 49.5265 4.8994 49.7598 4.84573C49.9931 4.79207 50.2371 4.80986 50.4601 4.89678C50.6832 4.9837 50.8748 5.13573 51.0102 5.33306C51.1455 5.53039 51.2182 5.76388 51.2189 6.00311V10.6156C51.2286 10.7676 51.2934 10.9108 51.4012 11.0185C51.509 11.1262 51.6523 11.191 51.8044 11.2008H56.3442C56.5864 11.1944 56.8248 11.2611 57.0285 11.3922C57.2321 11.5232 57.3916 11.7125 57.486 11.9354C57.5804 12.1583 57.6055 12.4045 57.5579 12.6419C57.5103 12.8792 57.3922 13.0967 57.2191 13.266L57.1778 13.2523ZM47.5333 19.4481L52.4382 14.5465C52.5234 14.4678 52.5837 14.3659 52.6114 14.2533C52.6392 14.1407 52.6333 14.0225 52.5944 13.9132C52.5555 13.804 52.4854 13.7086 52.3927 13.6388C52.3 13.569 52.1889 13.528 52.0731 13.5208H50.0064C49.6865 13.5282 49.3765 13.4097 49.1432 13.1908C48.9099 12.9718 48.7721 12.67 48.7596 12.3504V10.3471C48.759 10.2285 48.7236 10.1128 48.6578 10.0141C48.592 9.91542 48.4987 9.83822 48.3894 9.79205C48.2802 9.74587 48.1597 9.73276 48.0431 9.75433C47.9264 9.7759 47.8186 9.8312 47.7331 9.91339L42.9109 14.815C42.7822 14.9271 42.7029 15.0854 42.6904 15.2556V19.0626C42.6895 19.1397 42.704 19.2162 42.7331 19.2876C42.7622 19.3591 42.8053 19.4239 42.8599 19.4785C42.9145 19.533 42.9794 19.576 43.0508 19.6051C43.1223 19.6342 43.1988 19.6487 43.276 19.6478H47.1544C47.306 19.6478 47.4507 19.6478 47.5196 19.4963L47.5333 19.4481ZM40.9476 31.0138C40.9503 32.9821 40.3686 34.9071 39.2762 36.5449C38.1837 38.1828 36.6296 39.46 34.8105 40.2148C32.9914 40.9697 30.9891 41.1682 29.057 40.7854C27.125 40.4025 25.35 39.4555 23.9567 38.0641C22.5634 36.6728 21.6146 34.8996 21.2301 32.9691C20.8457 31.0386 21.043 29.0375 21.7971 27.2191C22.5511 25.4007 23.8281 23.8467 25.4663 22.7538C27.1045 21.661 29.0303 21.0784 31 21.0797C31.296 21.1024 31.5725 21.2359 31.7742 21.4535C31.9759 21.6711 32.088 21.9569 32.088 22.2535C32.088 22.5501 31.9759 22.8359 31.7742 23.0535C31.5725 23.2711 31.296 23.4046 31 23.4273C28.9902 23.4273 27.0628 24.2251 25.6417 25.6453C24.2206 27.0654 23.4222 28.9916 23.4222 31C23.4222 33.0084 24.2206 34.9346 25.6417 36.3547C27.0628 37.7749 28.9902 38.5727 31 38.5727C35.3951 38.5727 38.3229 35.282 38.5364 31C38.5296 30.8339 38.557 30.6682 38.6169 30.5131C38.6769 30.3581 38.7682 30.217 38.885 30.0987C39.0019 29.9804 39.1419 29.8874 39.2963 29.8255C39.4506 29.7636 39.6161 29.7341 39.7824 29.7388C39.9487 29.7435 40.1122 29.7824 40.2628 29.853C40.4134 29.9236 40.5478 30.0244 40.6578 30.1492C40.7677 30.2739 40.8508 30.42 40.9018 30.5782C40.9529 30.7364 40.9708 30.9034 40.9544 31.0688L40.9476 31.0138Z" fill="#B0C252"/>
</svg>
