<svg width="110" height="110" viewBox="0 0 110 110" fill="none" xmlns="http://www.w3.org/2000/svg">
<mask id="mask0_31_338" style="mask-type:luminance" maskUnits="userSpaceOnUse" x="0" y="0" width="110" height="110">
<path d="M109.56 109.56V0.106728H0.107097V109.56H109.56Z" fill="white" stroke="white" stroke-width="0.214194"/>
</mask>
<g mask="url(#mask0_31_338)">
<path d="M95.2255 20.7073C92.5487 23.384 88.2089 23.384 85.5321 20.7073C82.8553 18.0305 82.8553 13.6907 85.5321 11.0139C88.2089 8.33712 92.5487 8.33712 95.2255 11.0139C97.9023 13.6907 97.9023 18.0305 95.2255 20.7073Z" stroke="#B494B3" stroke-width="4.28388" stroke-miterlimit="10" stroke-linecap="round" stroke-linejoin="round"/>
<path d="M24.1352 98.6516C21.4584 101.328 17.1186 101.328 14.4419 98.6516C11.7651 95.9748 11.7651 91.635 14.4419 88.9582C17.1186 86.2815 21.4584 86.2815 24.1352 88.9582C26.812 91.635 26.812 95.9748 24.1352 98.6516Z" stroke="#B494B3" stroke-width="4.28388" stroke-miterlimit="10" stroke-linecap="round" stroke-linejoin="round"/>
<path d="M44.4425 106.5C47.802 107.172 51.2766 107.524 54.8337 107.524C83.9346 107.524 107.525 83.9335 107.525 54.8327C107.525 42.129 103.029 30.476 95.542 21.3764" stroke="#B494B3" stroke-width="4.28388" stroke-miterlimit="10" stroke-linecap="round" stroke-linejoin="round"/>
<path d="M65.3248 3.18569C61.9343 2.50069 58.4261 2.14106 54.8336 2.14106C25.7328 2.14106 2.14185 25.732 2.14185 54.8328C2.14185 67.5364 6.63821 79.1895 14.1254 88.2891" stroke="#B494B3" stroke-width="4.28388" stroke-miterlimit="10" stroke-linecap="round" stroke-linejoin="round"/>
<path d="M54.8338 70.3903C46.242 70.3903 39.2769 63.4254 39.2769 54.8334C39.2769 46.2417 46.242 39.2767 54.8338 39.2767C63.4255 39.2767 70.3907 46.2417 70.3907 54.8334C70.3907 63.4254 63.4255 70.3903 54.8338 70.3903ZM85.8566 48.1178C85.0405 44.3197 83.5461 40.7737 81.5042 37.6141L85.6081 33.51L76.1345 24.0432L72.0338 28.144C68.8742 26.1021 65.3284 24.6076 61.5304 23.7918V17.992H48.1372V23.7918C44.3391 24.6076 40.7934 26.1021 37.6338 28.144L33.533 24.0432L24.0595 33.51L28.1634 37.6141C26.1215 40.7737 24.6271 44.3197 23.811 48.1178H17.9961L17.9888 61.5107H23.8108C24.6269 65.3088 26.1213 68.8548 28.1632 72.0146L24.0436 76.1342L33.5103 85.608L37.6334 81.4847C40.7932 83.5269 44.3391 85.0213 48.1372 85.8374V91.6748H61.5304V85.8374C65.3284 85.0213 68.8744 83.5269 72.0342 81.4847L76.1572 85.608L85.624 76.1342L81.5044 72.0146C83.5463 68.8548 85.0407 65.3088 85.8568 61.5107H91.6788V48.1178H85.8566Z" stroke="#B494B3" stroke-width="4.28388" stroke-miterlimit="10" stroke-linecap="round" stroke-linejoin="round"/>
</g>
</svg>
