<svg width="31" height="30" viewBox="0 0 31 30" fill="none" xmlns="http://www.w3.org/2000/svg">
<path fill-rule="evenodd" clip-rule="evenodd" d="M15.607 29.3683C23.6807 29.3683 30.2258 22.8232 30.2258 14.7496C30.2258 6.67596 23.6807 0.130859 15.607 0.130859C7.53338 0.130859 0.988281 6.67596 0.988281 14.7496C0.988281 22.8232 7.53338 29.3683 15.607 29.3683ZM22.0325 9.47048C22.1454 8.18988 20.7929 8.71732 20.7929 8.71732C19.7944 9.13074 18.7647 9.55059 17.7238 9.97512C14.496 11.2917 11.1618 12.6518 8.32133 13.9906C6.7811 14.5555 7.68279 15.1203 7.68279 15.1203L10.1244 15.8738C11.2515 16.2129 11.8523 15.8361 11.8523 15.8361L17.1116 12.258C18.9898 10.9774 18.539 12.032 18.0881 12.484L14.144 16.2504C13.5429 16.7778 13.8434 17.2298 14.1063 17.4558C14.8518 18.1134 16.685 19.3165 17.4852 19.8416C17.6934 19.9781 17.8317 20.0691 17.863 20.0925C18.0507 20.243 19.0649 20.921 19.7412 20.7705C20.4175 20.6196 20.4926 19.7533 20.4926 19.7533L21.394 13.8397C21.5291 12.8132 21.6843 11.8264 21.8083 11.0382C21.9252 10.2938 22.0144 9.72689 22.0325 9.47048Z" fill="#383736"/>
</svg>
