<svg width="40" height="36" viewBox="0 0 40 36" fill="none" xmlns="http://www.w3.org/2000/svg">
<path d="M35.1766 5.92319L35.1767 5.92324C38.361 9.17344 40.1485 13.5801 40.1469 18.1738C40.1454 22.7674 38.3549 27.1729 35.1684 30.4208C31.9818 33.6689 27.6602 35.4933 23.1539 35.4917C18.6477 35.4901 14.3272 33.6627 11.1429 30.4124C10.1615 29.4125 9.30302 28.2947 8.58634 27.0838L5.19991 27.0994L5.19922 27.0994C4.97323 27.0994 4.75711 27.0078 4.59824 26.8457C4.43946 26.6838 4.35078 26.4647 4.35078 26.237C4.35078 26.0092 4.43946 25.7902 4.59824 25.6282C4.75704 25.4662 4.97304 25.3746 5.19892 25.3746L5.19852 25.3746L5.19922 25.5246V25.3746L35.1766 5.92319ZM35.1766 5.92319C32.3085 2.99808 28.5081 1.21613 24.4629 0.900497C20.4176 0.584859 16.3955 1.75646 13.1242 4.20277L13.1241 4.20288M35.1766 5.92319L13.1241 4.20288M13.1241 4.20288C12.9428 4.33877 12.8226 4.54193 12.7889 4.7672C12.7551 4.99244 12.8104 5.22242 12.9431 5.40668C13.076 5.59104 13.2758 5.7148 13.4991 5.7496C13.7225 5.78442 13.95 5.7272 14.1314 5.59122L14.1316 5.59109M13.1241 4.20288L14.1316 5.59109M14.1316 5.59109C16.7489 3.62318 19.9167 2.56588 23.1676 2.57474H23.168M14.1316 5.59109L23.168 2.57474M23.168 2.57474C31.5933 2.57474 38.4523 9.56747 38.4523 18.1678C38.4523 26.7681 31.5933 33.7609 23.168 33.7609C14.7427 33.7609 7.88359 26.7681 7.88359 18.1678L7.88359 18.1675M23.168 2.57474L7.88359 18.1675M7.88359 18.1675C7.87915 16.0263 8.31001 13.9076 9.14887 11.945L9.01094 11.886M7.88359 18.1675L9.01094 11.886M9.01094 11.886L9.14887 11.945C9.19315 11.8414 9.21694 11.73 9.21893 11.6171C9.22092 11.5043 9.20109 11.3921 9.1605 11.287C9.11991 11.1818 9.05933 11.0857 8.98206 11.0041C8.90502 10.9227 8.81289 10.8575 8.71084 10.8122C8.58863 10.7571 8.45522 10.7327 8.32188 10.7411C8.26722 10.7296 8.21156 10.7236 8.15569 10.7232L8.15435 10.7232M9.01094 11.886L8.15435 10.7232M8.15435 10.7232L0.698438 10.7399L8.15435 10.7232ZM0.702685 12.4648L0.702344 12.4648L0.698438 12.4648C0.472448 12.4648 0.25633 12.3732 0.0974567 12.2111C-0.0613184 12.0492 -0.15 11.8301 -0.15 11.6024C-0.15 11.3746 -0.0613181 11.1555 0.0974567 10.9936C0.256251 10.8316 0.472234 10.74 0.698101 10.7399L0.702685 12.4648ZM0.702685 12.4648L7.13913 12.4501C6.78748 13.474 6.53193 14.5297 6.37592 15.6029L2.12422 15.6176V15.7676L2.1237 15.6176L2.12397 15.6176C1.89807 15.6177 1.68205 15.7093 1.52324 15.8713C1.36446 16.0332 1.27578 16.2522 1.27578 16.48C1.27578 16.7078 1.36446 16.9268 1.52324 17.0888C1.68211 17.2508 1.89823 17.3424 2.12422 17.3424L2.12473 17.3424M0.702685 12.4648L2.12473 17.3424M2.12473 17.3424L6.20622 17.3286C6.19317 17.607 6.18594 17.8867 6.18594 18.1678C6.18602 18.9422 6.23625 19.7158 6.33628 20.4833L3.54531 20.4961V20.6461L3.54463 20.4961L3.54503 20.4961C3.31915 20.4962 3.10314 20.5877 2.94433 20.7497C2.78556 20.9117 2.69688 21.1307 2.69688 21.3585C2.69688 21.5863 2.78556 21.8053 2.94433 21.9673C3.10321 22.1293 3.31932 22.2209 3.54531 22.2209L3.54602 22.2209M2.12473 17.3424L3.54602 22.2209M3.54602 22.2209L6.64217 22.2063L3.54602 22.2209ZM7.70107 25.3629C7.72341 25.4129 7.74598 25.4628 7.7688 25.5126L7.93359 25.5118C7.91054 25.462 7.88773 25.4121 7.86516 25.3621L7.70107 25.3629Z" fill="#B0C252" stroke="#B0C252" stroke-width="0.3"/>
<path d="M23.1328 29.6729C29.3526 29.6729 34.4078 24.5191 34.4078 18.1898C34.4078 11.8605 29.3526 6.70742 23.1328 6.70742C16.913 6.70742 11.8578 11.8605 11.8578 18.1898C11.8578 24.5191 16.913 29.6729 23.1328 29.6729ZM23.1328 8.43144C28.4122 8.43144 32.7117 12.8066 32.7117 18.1898C32.7117 23.5729 28.4122 27.9489 23.1328 27.9489C17.8534 27.9489 13.5547 23.5737 13.5547 18.1898C13.5547 12.8059 17.8542 8.43144 23.1328 8.43144Z" fill="#B0C252" stroke="#B0C252" stroke-width="0.3"/>
<path d="M23.0899 19.0539H23.1094H30.4773C30.5906 19.0574 30.7034 19.0378 30.809 18.9963C30.9154 18.9545 31.0123 18.8913 31.094 18.8107C31.1757 18.7302 31.2405 18.6338 31.2846 18.5276C31.3288 18.4213 31.3516 18.3071 31.3516 18.1919C31.3516 18.0766 31.3288 17.9624 31.2846 17.8561C31.2405 17.7499 31.1757 17.6535 31.094 17.573C31.0123 17.4924 30.9154 17.4292 30.809 17.3874C30.7034 17.3459 30.5906 17.3263 30.4773 17.3298H23.9384V10.6538C23.9384 10.426 23.8497 10.207 23.6909 10.0451C23.532 9.883 23.3159 9.79141 23.0899 9.79141C22.8639 9.79141 22.6478 9.883 22.4889 10.0451C22.3302 10.207 22.2415 10.426 22.2415 10.6538V18.1915C22.2415 18.4192 22.3302 18.6383 22.4889 18.8002C22.6478 18.9623 22.8639 19.0539 23.0899 19.0539Z" fill="#B0C252" stroke="#B0C252" stroke-width="0.3"/>
</svg>
