<svg width="47" height="46" viewBox="0 0 47 46" fill="none" xmlns="http://www.w3.org/2000/svg">
<circle cx="23.419" cy="22.8838" r="22.8838" fill="#B494B3"/>
<path d="M33.5766 17.7031C33.7338 17.1721 33.5766 16.7812 32.8204 16.7812H30.3182C29.681 16.7812 29.3879 17.1169 29.2307 17.4907C29.2307 17.4907 27.9563 20.5961 26.1551 22.6097C25.5731 23.1917 25.3054 23.3786 24.9868 23.3786C24.8296 23.3786 24.5875 23.1917 24.5875 22.6607V17.7031C24.5875 17.0659 24.4091 16.7812 23.8823 16.7812H19.9485C19.5492 16.7812 19.3113 17.0786 19.3113 17.3548C19.3113 17.958 20.2119 18.0982 20.3054 19.7974V23.4848C20.3054 24.292 20.1609 24.4407 19.8423 24.4407C18.9927 24.4407 16.9281 21.3225 15.7046 17.7541C15.4582 17.0616 15.2161 16.7812 14.5746 16.7812H12.0724C11.3587 16.7812 11.2143 17.1169 11.2143 17.4907C11.2143 18.1534 12.0639 21.4457 15.1693 25.7958C17.2382 28.7653 20.1524 30.3753 22.8033 30.3753C24.3963 30.3753 24.5917 30.0185 24.5917 29.4025C24.5917 26.5647 24.4473 26.2971 25.246 26.2971C25.6155 26.2971 26.2528 26.484 27.7396 27.9157C29.4389 29.6149 29.7193 30.3753 30.6708 30.3753H33.173C33.8867 30.3753 34.2478 30.0185 34.0396 29.3133C33.5638 27.8307 30.348 24.7805 30.2035 24.5766C29.834 24.1008 29.9402 23.8884 30.2035 23.4636C30.2078 23.4593 33.2622 19.1602 33.5766 17.7031Z" fill="white"/>
</svg>
