<svg width="30" height="30" viewBox="0 0 30 30" fill="none" xmlns="http://www.w3.org/2000/svg">
<path fill-rule="evenodd" clip-rule="evenodd" d="M14.7877 29.9113C22.8614 29.9113 29.4064 23.3663 29.4064 15.2926C29.4064 7.21887 22.8614 0.673828 14.7877 0.673828C6.71399 0.673828 0.168945 7.21887 0.168945 15.2926C0.168945 23.3663 6.71399 29.9113 14.7877 29.9113ZM20.5658 9.15059C19.0614 7.64433 17.0606 6.81449 14.929 6.8137C10.537 6.8137 6.96216 10.388 6.96058 14.7816C6.96005 16.186 7.32695 17.5569 8.02412 18.7651L6.89356 22.8943L11.1177 21.7864C12.2815 22.4213 13.5921 22.7558 14.9255 22.7563H14.9287C19.3203 22.7563 22.8952 19.1814 22.8971 14.7882C22.8984 12.6587 22.0704 10.6568 20.5658 9.15059ZM18.5618 16.45C18.3627 16.3503 17.3839 15.8688 17.2013 15.8023C17.0189 15.7358 16.8859 15.7026 16.7533 15.902C16.6206 16.1014 16.239 16.5497 16.1228 16.6827C16.0067 16.8156 15.8905 16.8321 15.6916 16.7324C15.659 16.7161 15.6146 16.6968 15.5598 16.6731C15.2794 16.5514 14.7264 16.3116 14.0904 15.7441C13.4985 15.216 13.0989 14.5641 12.9827 14.3649C12.8665 14.1655 12.9702 14.0578 13.0699 13.9586C13.1297 13.899 13.1983 13.8154 13.267 13.7319C13.3012 13.6902 13.3354 13.6485 13.3685 13.6098C13.4528 13.5113 13.4895 13.4365 13.5393 13.3351C13.5482 13.3169 13.5575 13.2979 13.5677 13.2777C13.6341 13.1448 13.6009 13.0286 13.5512 12.9289C13.518 12.8623 13.3293 12.4029 13.1581 11.9865C13.0731 11.7794 12.9923 11.5829 12.9372 11.4505C12.7945 11.1078 12.6499 11.1087 12.5339 11.1094C12.5184 11.1095 12.5035 11.1096 12.4892 11.1089C12.3733 11.103 12.2403 11.102 12.1077 11.102C11.975 11.102 11.7594 11.1517 11.5767 11.3511C11.5649 11.364 11.5518 11.378 11.5375 11.3933C11.33 11.6148 10.8798 12.0954 10.8798 13.0121C10.8798 13.9897 11.5897 14.9343 11.6921 15.0707L11.6929 15.0716C11.6994 15.0803 11.7109 15.0969 11.7275 15.1207C11.9652 15.4616 13.2268 17.2717 15.0941 18.078C15.5693 18.2833 15.9399 18.4056 16.2292 18.4973C16.7062 18.6489 17.1401 18.6276 17.4834 18.5763C17.866 18.5192 18.6613 18.0948 18.8272 17.6298C18.9931 17.1647 18.9931 16.7659 18.9434 16.6829C18.9033 16.6158 18.8092 16.5703 18.6697 16.5029C18.6363 16.4867 18.6003 16.4693 18.5618 16.45Z" fill="#383736"/>
</svg>
